<svg width="527" height="74" viewBox="0 0 527 74" fill="none" xmlns="http://www.w3.org/2000/svg">
<g clip-path="url(#clip0_161_401)">
<path d="M222.645 27.5762H215.044C216.578 24.689 218.021 21.779 219.532 18.9601C219.257 18.9373 219.074 18.9601 218.914 18.9601C217.082 18.9601 213.854 18.9601 211.496 18.9601C210.305 22.3929 208.382 27.6216 207.146 31.1908H213.419C211.771 34.6691 210.145 38.3747 208.543 41.7621C213.167 37.1244 218.066 32.2139 222.691 27.5762C222.691 27.508 222.668 27.6444 222.645 27.5762Z" fill="white"/>
<path d="M214.953 50.4464C205.498 50.4464 197.782 42.967 197.782 33.7598C197.782 24.5526 213.053 3.13737 213.717 2.20528C214.266 1.4096 215.617 1.4096 216.189 2.20528C216.83 3.13737 232.123 25.0073 232.123 33.7598C232.123 42.9443 224.431 50.4464 214.953 50.4464ZM214.953 5.63809C210.076 12.822 200.758 27.7808 200.758 33.7598C200.758 41.3529 207.123 47.5365 214.953 47.5365C222.783 47.5365 229.147 41.3529 229.147 33.7598C229.147 27.7808 219.829 12.7992 214.953 5.63809Z" fill="white"/>
<path d="M152.772 69.0655C152.772 68.5653 152.795 68.1334 152.864 67.7697C152.933 67.4059 153.024 67.0649 153.185 66.7694C153.345 66.4738 153.528 66.2238 153.757 65.9964C153.986 65.7691 154.283 65.5645 154.627 65.3599C154.925 65.178 155.222 65.0189 155.543 64.8825C155.863 64.7461 156.138 64.5869 156.413 64.4051C156.687 64.2459 156.893 64.0413 157.077 63.8367C157.237 63.6094 157.328 63.3593 157.328 63.041C157.328 62.8137 157.283 62.6091 157.168 62.4272C157.054 62.2453 156.916 62.1089 156.733 62.018C156.55 61.9271 156.298 61.8589 156.023 61.8589C155.703 61.8589 155.405 61.9043 155.131 62.018C154.856 62.1317 154.627 62.2681 154.398 62.4272C154.192 62.5863 154.009 62.7455 153.848 62.9046L152.818 61.8361C152.933 61.6997 153.093 61.5633 153.299 61.4042C153.505 61.2451 153.757 61.0859 154.032 60.9268C154.329 60.7676 154.65 60.654 155.016 60.5403C155.382 60.4266 155.794 60.3812 156.229 60.3812C156.87 60.3812 157.42 60.4948 157.878 60.7222C158.336 60.9495 158.656 61.2451 158.885 61.6315C159.114 62.018 159.229 62.4499 159.229 62.9501C159.229 63.3138 159.16 63.6094 159.045 63.9049C158.931 64.1777 158.771 64.4278 158.542 64.6324C158.336 64.837 158.107 65.0189 157.832 65.2007C157.557 65.3599 157.305 65.519 157.031 65.6781C156.596 65.9055 156.252 66.1101 155.978 66.2692C155.703 66.4284 155.497 66.5875 155.337 66.7466C155.176 66.9058 155.062 67.0422 154.993 67.1786C154.924 67.315 154.856 67.4741 154.81 67.6105H159.229V69.0882H152.772V69.0655Z" fill="white"/>
<path d="M163.281 69.1334C162.823 69.1334 162.388 69.0652 161.999 68.9516C161.61 68.8379 161.266 68.656 160.969 68.4514C160.671 68.2241 160.465 67.974 160.305 67.6557L161.175 66.5418C161.266 66.7237 161.404 66.9055 161.587 67.0874C161.77 67.2693 161.999 67.4057 162.274 67.4966C162.548 67.6103 162.869 67.6557 163.212 67.6557C163.556 67.6557 163.853 67.6103 164.105 67.5193C164.357 67.4284 164.54 67.292 164.677 67.1101C164.815 66.9283 164.884 66.7237 164.884 66.4963C164.884 66.2235 164.792 65.9962 164.632 65.8143C164.449 65.6324 164.197 65.496 163.876 65.4051C163.533 65.3142 163.144 65.2687 162.64 65.2687H162.228V64.0411H162.663C163.281 64.0411 163.762 63.9501 164.128 63.7455C164.494 63.5409 164.677 63.2681 164.677 62.9044C164.677 62.677 164.609 62.4952 164.494 62.336C164.38 62.1769 164.197 62.0632 163.991 61.9723C163.785 61.8814 163.556 61.8359 163.304 61.8359C162.892 61.8359 162.525 61.9268 162.205 62.1314C161.884 62.336 161.633 62.5634 161.449 62.8589L160.373 61.6767C160.557 61.4267 160.808 61.1993 161.129 61.0175C161.449 60.8356 161.793 60.6992 162.205 60.5855C162.594 60.4719 163.006 60.4264 163.418 60.4264C164.014 60.4264 164.54 60.5173 164.998 60.7219C165.456 60.9265 165.822 61.1766 166.074 61.5176C166.349 61.8586 166.463 62.2451 166.463 62.6998C166.463 63.018 166.395 63.2909 166.257 63.5637C166.12 63.8365 165.937 64.0411 165.685 64.2229C165.433 64.4048 165.135 64.5412 164.792 64.6094C165.158 64.6776 165.502 64.7913 165.776 64.9959C166.051 65.2005 166.28 65.4506 166.417 65.7688C166.578 66.0871 166.646 66.4281 166.646 66.7919C166.646 67.292 166.509 67.7239 166.211 68.0877C165.914 68.4514 165.525 68.7242 164.998 68.9061C164.494 69.088 163.922 69.1789 163.281 69.1789V69.1334Z" fill="white"/>
<path d="M174.201 66.519C174.201 67.0646 174.064 67.5193 173.766 67.9285C173.469 68.3377 173.08 68.6333 172.599 68.8606C172.118 69.0879 171.568 69.2016 170.973 69.2016C170.378 69.2016 169.851 69.0879 169.371 68.8379C168.89 68.6105 168.501 68.2923 168.203 67.8831C167.905 67.4738 167.768 66.9964 167.768 66.4736C167.768 66.1553 167.837 65.8597 167.974 65.5869C168.111 65.3141 168.295 65.0868 168.501 64.9049C168.707 64.7231 168.936 64.5639 169.165 64.473C168.959 64.3593 168.775 64.2456 168.592 64.0638C168.409 63.9046 168.295 63.7228 168.18 63.4954C168.066 63.2681 168.02 63.0635 168.02 62.8361C168.02 62.4497 168.111 62.1087 168.295 61.8131C168.478 61.5176 168.707 61.2675 169.004 61.0629C169.279 60.8583 169.6 60.6992 169.966 60.6082C170.309 60.5173 170.653 60.4491 170.996 60.4491C171.34 60.4491 171.683 60.4946 172.026 60.6082C172.37 60.6992 172.69 60.8583 172.988 61.0629C173.286 61.2675 173.515 61.5176 173.698 61.8131C173.881 62.1087 173.972 62.4497 173.972 62.8361C173.972 63.0635 173.927 63.2908 173.812 63.4954C173.721 63.7 173.583 63.9046 173.4 64.0638C173.217 64.2229 173.034 64.3593 172.828 64.473C173.08 64.5867 173.286 64.7458 173.492 64.9277C173.698 65.1095 173.881 65.3596 174.018 65.6324C174.156 65.9052 174.224 66.2008 174.224 66.5418L174.201 66.519ZM172.507 66.4281C172.507 66.2235 172.461 66.0416 172.37 65.8825C172.278 65.7233 172.164 65.5869 172.026 65.4733C171.889 65.3596 171.706 65.2914 171.523 65.2232C171.34 65.1777 171.156 65.1323 170.95 65.1323C170.699 65.1323 170.447 65.1777 170.218 65.2914C169.989 65.4051 169.806 65.5415 169.645 65.7461C169.508 65.9507 169.439 66.178 169.439 66.4508C169.439 66.6327 169.485 66.8146 169.577 66.9737C169.668 67.1328 169.783 67.2692 169.92 67.3829C170.057 67.4966 170.218 67.5875 170.401 67.6557C170.584 67.7239 170.767 67.7466 170.973 67.7466C171.248 67.7466 171.5 67.6784 171.729 67.5648C171.958 67.4511 172.141 67.292 172.301 67.1101C172.438 66.9055 172.507 66.7009 172.507 66.4508V66.4281ZM169.714 62.8816C169.714 63.109 169.783 63.2908 169.897 63.45C170.012 63.6091 170.172 63.7228 170.378 63.791C170.561 63.8592 170.767 63.9046 170.95 63.9046C171.134 63.9046 171.34 63.8592 171.523 63.791C171.706 63.7 171.866 63.5864 172.003 63.45C172.141 63.2908 172.187 63.109 172.187 62.8816C172.187 62.677 172.118 62.5179 172.003 62.3587C171.889 62.1996 171.729 62.0859 171.546 61.995C171.362 61.9041 171.156 61.8813 170.905 61.8813C170.676 61.8813 170.492 61.9268 170.286 62.0177C170.103 62.1087 169.943 62.2223 169.829 62.3815C169.714 62.5406 169.668 62.6997 169.668 62.9043L169.714 62.8816Z" fill="white"/>
<path d="M175.69 61.8361C175.965 61.3815 176.354 61.0177 176.857 60.7676C177.361 60.5176 177.911 60.3812 178.506 60.3812C179.17 60.3812 179.742 60.5403 180.246 60.8586C180.727 61.1769 181.116 61.6088 181.391 62.1999C181.665 62.791 181.803 63.4957 181.803 64.3141C181.803 65.3599 181.665 66.2465 181.368 66.9512C181.093 67.656 180.681 68.2016 180.154 68.5881C179.628 68.9518 179.032 69.1337 178.323 69.1337C177.75 69.1337 177.247 69.02 176.766 68.7699C176.285 68.5199 175.896 68.2016 175.575 67.7469L176.537 66.7239C176.743 67.0194 176.995 67.2695 177.315 67.4286C177.636 67.6105 177.979 67.6787 178.346 67.6787C178.735 67.6787 179.055 67.5878 179.33 67.3832C179.605 67.2013 179.811 66.9058 179.971 66.542C180.131 66.1783 180.2 65.7463 180.223 65.2235C180.108 65.4053 179.948 65.5872 179.765 65.7236C179.582 65.86 179.376 65.9737 179.124 66.0419C178.872 66.1101 178.62 66.1556 178.346 66.1556C177.773 66.1556 177.27 66.0419 176.789 65.7918C176.308 65.5417 175.942 65.2007 175.667 64.7688C175.392 64.3368 175.255 63.8594 175.255 63.3138C175.255 62.7682 175.392 62.2453 175.69 61.7907V61.8361ZM177.705 61.9498C177.453 62.1089 177.247 62.2908 177.109 62.5409C176.972 62.791 176.88 63.0638 176.88 63.3593C176.88 63.6321 176.949 63.8822 177.109 64.1322C177.27 64.3823 177.453 64.5642 177.705 64.7006C177.956 64.837 178.231 64.9052 178.529 64.9052C178.826 64.9052 179.124 64.837 179.353 64.7006C179.605 64.5642 179.788 64.3596 179.948 64.1322C180.108 63.9049 180.177 63.6321 180.177 63.3593C180.177 63.0638 180.108 62.791 179.948 62.5636C179.788 62.3135 179.582 62.1317 179.353 61.9725C179.124 61.8134 178.826 61.7452 178.529 61.7452C178.231 61.7452 177.956 61.8134 177.727 61.9725L177.705 61.9498Z" fill="white"/>
<path d="M193.318 69.0655H191.647V65.5417C191.647 65.0416 191.555 64.6779 191.372 64.4505C191.189 64.2232 190.937 64.1095 190.617 64.1095C190.273 64.1095 189.976 64.2232 189.678 64.4732C189.38 64.7233 189.174 65.0416 189.06 65.4053V69.0655H187.366V65.5417C187.366 65.0416 187.274 64.6779 187.091 64.4505C186.908 64.2232 186.679 64.1095 186.358 64.1095C186.038 64.1095 185.717 64.2232 185.42 64.4732C185.122 64.7233 184.916 65.0189 184.779 65.4053V69.0882H183.107V62.7682H184.618V63.9504C184.87 63.5412 185.214 63.2229 185.626 62.9955C186.038 62.7682 186.519 62.6545 187.068 62.6545C187.618 62.6545 188.03 62.7909 188.35 63.041C188.648 63.2911 188.854 63.6094 188.923 63.9958C189.197 63.5639 189.541 63.2229 189.953 62.9955C190.365 62.7682 190.846 62.6545 191.372 62.6545C191.784 62.6545 192.105 62.7227 192.357 62.8591C192.608 62.9955 192.815 63.1774 192.952 63.4275C193.089 63.6548 193.181 63.9276 193.25 64.2232C193.295 64.5187 193.341 64.8143 193.341 65.1098V69.0655H193.318Z" fill="white"/>
<path d="M197.347 69.2016C196.912 69.2016 196.523 69.1107 196.156 68.9515C195.79 68.7697 195.493 68.5423 195.218 68.2468C194.966 67.9512 194.76 67.6102 194.623 67.2238C194.485 66.8373 194.417 66.4281 194.417 65.9734C194.417 65.5187 194.485 65.0868 194.645 64.6776C194.783 64.2911 194.989 63.9274 195.264 63.6318C195.538 63.3363 195.859 63.0862 196.225 62.9271C196.591 62.7679 197.004 62.677 197.461 62.677C197.965 62.677 198.423 62.7907 198.812 62.9953C199.201 63.2226 199.522 63.5182 199.774 63.8819V62.7679H201.239V68.7924C201.239 69.4289 201.079 69.9518 200.758 70.4065C200.438 70.8612 200.003 71.2022 199.476 71.4295C198.927 71.6569 198.309 71.7933 197.599 71.7933C196.889 71.7933 196.294 71.6796 195.79 71.4523C195.309 71.2249 194.874 70.8839 194.531 70.4747L195.447 69.6108C195.699 69.9064 196.019 70.1564 196.385 70.3156C196.775 70.4974 197.164 70.5656 197.599 70.5656C197.942 70.5656 198.263 70.4974 198.583 70.3838C198.881 70.2701 199.11 70.0882 199.293 69.8382C199.476 69.5881 199.545 69.2698 199.545 68.8606V68.0649C199.339 68.4287 199.041 68.7015 198.629 68.9061C198.24 69.1107 197.805 69.2016 197.37 69.2016H197.347ZM197.919 67.883C198.102 67.883 198.286 67.8603 198.446 67.7921C198.606 67.7239 198.766 67.6557 198.904 67.5648C199.041 67.4738 199.178 67.3602 199.27 67.2238C199.385 67.0874 199.453 66.951 199.499 66.7918V65.2687C199.407 65.0186 199.27 64.7912 199.087 64.6094C198.904 64.4275 198.698 64.2684 198.492 64.1774C198.263 64.0865 198.034 64.0183 197.805 64.0183C197.576 64.0183 197.324 64.0638 197.118 64.1774C196.912 64.2911 196.729 64.4275 196.569 64.6094C196.408 64.7912 196.294 65.0186 196.225 65.2459C196.134 65.4733 196.111 65.7233 196.111 65.9734C196.111 66.2235 196.156 66.4735 196.248 66.7009C196.34 66.9282 196.477 67.1328 196.637 67.3147C196.797 67.4966 197.004 67.633 197.21 67.7239C197.416 67.8148 197.667 67.8603 197.919 67.8603V67.883Z" fill="white"/>
<path d="M212.091 67.6102V69.0879H205.91V60.4491H211.977V61.9268H207.65V64.0183H211.381V65.3823H207.65V67.633H212.091V67.6102Z" fill="white"/>
<path d="M213.259 60.1992H214.93V67.042C214.93 67.3376 214.976 67.5422 215.09 67.6558C215.182 67.7468 215.319 67.815 215.48 67.815C215.64 67.815 215.777 67.815 215.914 67.7695C216.052 67.7468 216.166 67.7013 216.281 67.6331L216.51 68.8835C216.281 68.9971 216.029 69.0653 215.731 69.1335C215.434 69.2017 215.159 69.2245 214.907 69.2245C214.381 69.2245 213.968 69.0881 213.694 68.8153C213.396 68.5425 213.259 68.156 213.259 67.6558V60.2219V60.1992Z" fill="white"/>
<path d="M220.287 69.2016C219.761 69.2016 219.28 69.1107 218.868 68.9516C218.433 68.7697 218.089 68.5424 217.769 68.2468C217.471 67.9513 217.242 67.6103 217.082 67.2238C216.922 66.8373 216.853 66.4281 216.853 65.9962C216.853 65.4051 216.99 64.8595 217.265 64.3593C217.54 63.8592 217.929 63.45 218.456 63.1544C218.959 62.8589 219.577 62.6998 220.31 62.6998C221.043 62.6998 221.638 62.8589 222.142 63.1544C222.645 63.45 223.034 63.8592 223.309 64.3366C223.584 64.814 223.721 65.3596 223.721 65.928C223.721 66.0416 223.721 66.1326 223.721 66.2235C223.721 66.3144 223.721 66.4054 223.698 66.4508H218.639C218.662 66.7919 218.753 67.0647 218.914 67.292C219.074 67.5193 219.28 67.7012 219.532 67.8376C219.783 67.974 220.058 68.0195 220.333 68.0195C220.676 68.0195 220.997 67.9513 221.294 67.7921C221.592 67.633 221.798 67.4284 221.913 67.1556L223.332 67.5421C223.172 67.8603 222.966 68.1559 222.668 68.406C222.371 68.656 222.027 68.8606 221.638 68.997C221.226 69.1334 220.791 69.2016 220.287 69.2016ZM218.57 65.4051H222.004C221.981 65.0868 221.867 64.814 221.729 64.5867C221.569 64.3593 221.363 64.1775 221.111 64.0411C220.86 63.9047 220.585 63.8365 220.264 63.8365C219.944 63.8365 219.692 63.9047 219.44 64.0411C219.188 64.1775 218.982 64.3593 218.845 64.5867C218.685 64.814 218.593 65.0868 218.57 65.4051Z" fill="white"/>
<path d="M227.796 69.2016C227.247 69.2016 226.766 69.1107 226.354 68.9516C225.942 68.7697 225.576 68.5424 225.278 68.2241C224.98 67.9058 224.752 67.5648 224.591 67.1783C224.431 66.7919 224.362 66.3826 224.362 65.9507C224.362 65.3596 224.5 64.814 224.774 64.3366C225.049 63.8592 225.438 63.45 225.965 63.1544C226.491 62.8589 227.087 62.6998 227.796 62.6998C228.506 62.6998 229.124 62.8589 229.628 63.1544C230.132 63.45 230.521 63.8365 230.75 64.3366L229.124 64.814C228.987 64.5867 228.804 64.4048 228.552 64.2684C228.323 64.132 228.048 64.0865 227.774 64.0865C227.476 64.0865 227.178 64.1547 226.926 64.3139C226.675 64.473 226.469 64.6776 226.308 64.9731C226.148 65.246 226.079 65.587 226.079 65.9734C226.079 66.3599 226.148 66.6555 226.308 66.951C226.469 67.2465 226.675 67.4511 226.926 67.6103C227.178 67.7694 227.476 67.8376 227.796 67.8376C228.002 67.8376 228.186 67.8149 228.369 67.7467C228.552 67.6785 228.712 67.5875 228.85 67.4739C228.987 67.3602 229.101 67.2238 229.17 67.0874L230.796 67.5648C230.635 67.8831 230.429 68.1559 230.132 68.406C229.834 68.656 229.513 68.8606 229.124 68.997C228.735 69.1334 228.3 69.2016 227.819 69.2016H227.796Z" fill="white"/>
<path d="M235.741 68.747C235.581 68.8152 235.42 68.8834 235.214 68.9516C235.008 69.0198 234.802 69.088 234.573 69.1335C234.344 69.1789 234.115 69.2017 233.886 69.2017C233.566 69.2017 233.291 69.1562 233.016 69.0425C232.765 68.9289 232.559 68.7697 232.398 68.5424C232.238 68.315 232.169 68.0195 232.169 67.6558V64.0184H231.322V62.768H232.169V60.6992H233.864V62.768H235.237V64.0184H233.864V67.1102C233.864 67.3375 233.932 67.4966 234.047 67.5876C234.161 67.6785 234.321 67.7467 234.505 67.7467C234.665 67.7467 234.848 67.724 235.008 67.6558C235.168 67.5876 235.306 67.5421 235.42 67.4966L235.741 68.7925V68.747Z" fill="white"/>
<path d="M240.549 64.1095C240.022 64.1095 239.564 64.2232 239.175 64.405C238.786 64.5869 238.488 64.8597 238.305 65.2235V69.0882H236.634V62.7682H238.168V64.064C238.397 63.6321 238.694 63.2911 239.061 63.0183C239.427 62.7682 239.816 62.6318 240.205 62.6091C240.297 62.6091 240.366 62.6091 240.411 62.6091C240.457 62.6091 240.503 62.6091 240.549 62.6091V64.0868V64.1095Z" fill="white"/>
<path d="M244.486 69.2019C243.96 69.2019 243.479 69.1109 243.044 68.9291C242.632 68.7472 242.266 68.5199 241.968 68.2016C241.67 67.9061 241.441 67.5423 241.281 67.1558C241.121 66.7694 241.052 66.3602 241.052 65.9282C241.052 65.4963 241.121 65.0643 241.281 64.6551C241.441 64.2459 241.67 63.9049 241.945 63.6094C242.243 63.3138 242.609 63.0638 243.021 62.9046C243.456 62.7227 243.914 62.6545 244.441 62.6545C244.967 62.6545 245.471 62.7455 245.883 62.9046C246.295 63.0865 246.661 63.3138 246.959 63.6094C247.257 63.9049 247.485 64.2459 247.646 64.6551C247.806 65.0643 247.875 65.4735 247.875 65.9282C247.875 66.3829 247.783 66.7694 247.646 67.1558C247.508 67.5423 247.257 67.8833 246.959 68.2016C246.661 68.4971 246.295 68.7472 245.883 68.9291C245.471 69.1109 244.99 69.2019 244.441 69.2019H244.486ZM242.769 65.9282C242.769 66.292 242.838 66.6102 242.998 66.9058C243.159 67.2013 243.365 67.4059 243.616 67.565C243.868 67.7242 244.166 67.7924 244.486 67.7924C244.807 67.7924 245.082 67.7014 245.356 67.5423C245.631 67.3832 245.814 67.1558 245.974 66.883C246.135 66.6102 246.203 66.2692 246.203 65.9055C246.203 65.5417 246.135 65.2235 245.974 64.9507C245.814 64.6779 245.608 64.4505 245.356 64.2914C245.105 64.1322 244.807 64.0413 244.486 64.0413C244.166 64.0413 243.891 64.1322 243.616 64.2914C243.365 64.4505 243.159 64.6779 242.998 64.9507C242.838 65.2235 242.769 65.5645 242.769 65.9282Z" fill="white"/>
<path d="M249.042 60.1992H250.714V67.042C250.714 67.3376 250.76 67.5422 250.874 67.6558C250.966 67.7468 251.103 67.815 251.263 67.815C251.423 67.815 251.561 67.815 251.698 67.7695C251.836 67.7468 251.95 67.7013 252.065 67.6331L252.293 68.8835C252.065 68.9971 251.813 69.0653 251.515 69.1335C251.217 69.2017 250.943 69.2245 250.691 69.2245C250.164 69.2245 249.752 69.0881 249.477 68.8153C249.18 68.5425 249.042 68.156 249.042 67.6558V60.2219V60.1992Z" fill="white"/>
<path d="M253.163 70.3156C253.323 70.3383 253.461 70.3838 253.575 70.3838C253.712 70.3838 253.804 70.4293 253.896 70.4293C254.056 70.4293 254.193 70.3838 254.285 70.3156C254.376 70.2474 254.491 70.111 254.582 69.9064C254.674 69.7018 254.788 69.429 254.903 69.088L252.316 62.7452H254.056L255.819 67.4284L257.376 62.7452H258.978L256.231 70.3383C256.139 70.6111 255.979 70.8839 255.773 71.1113C255.567 71.3386 255.315 71.5205 255.017 71.6569C254.72 71.7933 254.376 71.8615 253.987 71.8615C253.85 71.8615 253.712 71.8615 253.598 71.8388C253.461 71.8388 253.323 71.7706 253.163 71.7251V70.3156Z" fill="white"/>
<path d="M263.832 68.747C263.672 68.8152 263.512 68.8834 263.306 68.9516C263.1 69.0198 262.893 69.088 262.665 69.1335C262.436 69.1789 262.207 69.2017 261.978 69.2017C261.657 69.2017 261.382 69.1562 261.108 69.0425C260.856 68.9289 260.65 68.7697 260.49 68.5424C260.329 68.315 260.261 68.0195 260.261 67.6558V64.0184H259.414V62.768H260.261V60.6992H261.955V62.768H263.328V64.0184H261.955V67.1102C261.955 67.3375 262.024 67.4966 262.138 67.5876C262.252 67.6785 262.413 67.7467 262.596 67.7467C262.756 67.7467 262.939 67.724 263.1 67.6558C263.26 67.5876 263.397 67.5421 263.512 67.4966L263.832 68.7925V68.747Z" fill="white"/>
<path d="M267.747 69.2016C267.22 69.2016 266.739 69.1107 266.327 68.9516C265.892 68.7697 265.549 68.5424 265.228 68.2468C264.931 67.9513 264.702 67.6103 264.541 67.2238C264.381 66.8373 264.312 66.4281 264.312 65.9962C264.312 65.4051 264.45 64.8595 264.725 64.3593C264.999 63.8592 265.389 63.45 265.915 63.1544C266.419 62.8589 267.037 62.6998 267.77 62.6998C268.502 62.6998 269.097 62.8589 269.601 63.1544C270.105 63.45 270.494 63.8592 270.769 64.3366C271.043 64.814 271.181 65.3596 271.181 65.928C271.181 66.0416 271.181 66.1326 271.181 66.2235C271.181 66.3144 271.181 66.4054 271.158 66.4508H266.098C266.121 66.7919 266.213 67.0647 266.373 67.292C266.533 67.5193 266.739 67.7012 266.991 67.8376C267.243 67.974 267.518 68.0195 267.792 68.0195C268.136 68.0195 268.456 67.9513 268.754 67.7921C269.052 67.633 269.258 67.4284 269.372 67.1556L270.792 67.5421C270.631 67.8603 270.425 68.1559 270.128 68.406C269.83 68.656 269.487 68.8606 269.097 68.997C268.685 69.1334 268.25 69.2016 267.747 69.2016ZM266.052 65.4051H269.487C269.464 65.0868 269.349 64.814 269.212 64.5867C269.052 64.3593 268.846 64.1775 268.594 64.0411C268.342 63.9047 268.067 63.8365 267.747 63.8365C267.426 63.8365 267.174 63.9047 266.922 64.0411C266.671 64.1775 266.465 64.3593 266.327 64.5867C266.167 64.814 266.075 65.0868 266.052 65.4051Z" fill="white"/>
<path d="M274.638 69.2016C274.089 69.2016 273.539 69.1107 273.035 68.9288C272.532 68.747 272.074 68.4969 271.73 68.1331L272.349 67.0647C272.738 67.3829 273.104 67.6103 273.493 67.7467C273.883 67.8831 274.226 67.974 274.592 67.974C274.913 67.974 275.187 67.9285 275.371 67.8149C275.577 67.7012 275.668 67.5421 275.668 67.3147C275.668 67.1556 275.622 67.0419 275.508 66.951C275.394 66.8601 275.233 66.7919 275.027 66.7464C274.821 66.6782 274.569 66.61 274.272 66.5418C273.791 66.4054 273.379 66.2462 273.058 66.1098C272.738 65.9507 272.486 65.7688 272.326 65.5642C272.165 65.3596 272.074 65.0641 272.074 64.7231C272.074 64.3139 272.188 63.9501 272.394 63.6546C272.623 63.359 272.921 63.1317 273.333 62.9498C273.722 62.7907 274.203 62.6998 274.73 62.6998C275.187 62.6998 275.645 62.768 276.057 62.9044C276.47 63.0408 276.859 63.2681 277.202 63.5864L276.515 64.6321C276.195 64.3821 275.874 64.1775 275.577 64.0638C275.279 63.9501 274.981 63.8819 274.661 63.8819C274.478 63.8819 274.317 63.8819 274.157 63.9501C273.997 64.0183 273.883 64.0638 273.791 64.1547C273.699 64.2457 273.654 64.3821 273.654 64.5412C273.654 64.6776 273.699 64.7913 273.791 64.8822C273.883 64.9732 274.02 65.0413 274.18 65.1096C274.363 65.1778 274.569 65.246 274.844 65.3142C275.371 65.4506 275.806 65.6097 276.172 65.7461C276.538 65.8825 276.813 66.0871 276.996 66.3144C277.179 66.5418 277.271 66.8373 277.271 67.2238C277.271 67.8376 277.042 68.3378 276.561 68.6788C276.08 69.0198 275.439 69.2016 274.638 69.2016Z" fill="white"/>
<path d="M285.696 73.4075V0" stroke="white" stroke-width="2.03788" stroke-miterlimit="10"/>
<path d="M444.558 73.4075V0" stroke="white" stroke-width="2.03788" stroke-miterlimit="10"/>
<path d="M143.363 73.4075V0" stroke="white" stroke-width="2.03788" stroke-miterlimit="10"/>
<path d="M470.177 60.4264L467.429 69.0652H465.644L463.4 63.1317L461.202 69.0652H459.462L456.692 60.4264H458.592L460.47 66.5873L462.553 60.4264H464.27L466.422 66.5873L468.277 60.4264H470.177Z" fill="white"/>
<path d="M471.07 61.7905V60.1764H472.741V61.7905H471.07ZM471.07 69.0653V62.6998H472.741V69.0653H471.07Z" fill="white"/>
<path d="M478.19 68.747C478.029 68.8152 477.869 68.8834 477.663 68.9516C477.457 69.0198 477.251 69.088 477.022 69.1335C476.793 69.1789 476.564 69.2017 476.335 69.2017C476.015 69.2017 475.74 69.1562 475.465 69.0425C475.213 68.9289 475.007 68.7697 474.847 68.5424C474.687 68.315 474.618 68.0195 474.618 67.6558V64.0184H473.771V62.768H474.618V60.6992H476.312V62.768H477.686V64.0184H476.312V67.1102C476.312 67.3375 476.381 67.4966 476.495 67.5876C476.61 67.6785 476.77 67.7467 476.953 67.7467C477.114 67.7467 477.297 67.724 477.457 67.6558C477.617 67.5876 477.755 67.5421 477.869 67.4966L478.19 68.7925V68.747Z" fill="white"/>
<path d="M485.172 69.0652H483.501V65.5415C483.501 65.0641 483.409 64.7003 483.203 64.4503C482.997 64.2002 482.746 64.0865 482.402 64.0865C482.196 64.0865 481.99 64.132 481.761 64.2457C481.532 64.3593 481.326 64.5185 481.143 64.7003C480.96 64.8822 480.822 65.1095 480.731 65.3596V69.0425H479.06V60.1536H480.731V63.9046C480.983 63.4954 481.326 63.1999 481.738 62.9726C482.15 62.7452 482.608 62.6316 483.089 62.6316C483.524 62.6316 483.867 62.6998 484.142 62.8362C484.417 62.9726 484.623 63.1544 484.76 63.4045C484.898 63.6546 485.012 63.9046 485.058 64.2002C485.127 64.4957 485.149 64.7913 485.149 65.0868V69.0425L485.172 69.0652Z" fill="white"/>
<path d="M490.575 60.4264L492.773 63.6319L494.971 60.4264H496.848L493.78 64.814L496.757 69.0652H494.879L492.773 65.9962L490.69 69.0652H488.79L491.766 64.814L488.675 60.4264H490.575Z" fill="white"/>
<path d="M497.444 70.3156C497.604 70.3383 497.741 70.3838 497.856 70.3838C497.993 70.3838 498.085 70.4293 498.176 70.4293C498.336 70.4293 498.474 70.3838 498.565 70.3156C498.657 70.2474 498.771 70.111 498.863 69.9064C498.955 69.7018 499.069 69.429 499.183 69.088L496.596 62.7452H498.336L500.099 67.4284L501.656 62.7452H503.259L500.511 70.3383C500.42 70.6111 500.259 70.8839 500.053 71.1113C499.847 71.3386 499.596 71.5205 499.298 71.6569C499 71.7933 498.657 71.8615 498.268 71.8615C498.13 71.8615 497.993 71.8615 497.879 71.8388C497.764 71.816 497.604 71.7706 497.444 71.7251V70.3156Z" fill="white"/>
<path d="M504.174 60.1992H505.846V67.042C505.846 67.3376 505.891 67.5422 506.006 67.6558C506.097 67.7468 506.235 67.815 506.395 67.815C506.555 67.815 506.693 67.815 506.83 67.7695C506.967 67.7468 507.082 67.7013 507.196 67.6331L507.425 68.8835C507.196 68.9971 506.945 69.0653 506.647 69.1335C506.349 69.2017 506.075 69.2245 505.823 69.2245C505.296 69.2245 504.884 69.0881 504.609 68.8153C504.312 68.5425 504.174 68.156 504.174 67.6558V60.2219V60.1992Z" fill="white"/>
<path d="M508.158 61.7905V60.1764H509.829V61.7905H508.158ZM508.158 69.0653V62.6998H509.829V69.0653H508.158Z" fill="white"/>
<path d="M515.278 68.747C515.118 68.8152 514.957 68.8834 514.751 68.9516C514.545 69.0198 514.339 69.088 514.11 69.1335C513.881 69.1789 513.652 69.2017 513.424 69.2017C513.103 69.2017 512.828 69.1562 512.554 69.0425C512.302 68.9289 512.096 68.7697 511.935 68.5424C511.775 68.315 511.706 68.0195 511.706 67.6558V64.0184H510.859V62.768H511.706V60.6992H513.401V62.768H514.774V64.0184H513.401V67.1102C513.401 67.3375 513.469 67.4966 513.584 67.5876C513.698 67.6785 513.859 67.7467 514.042 67.7467C514.202 67.7467 514.385 67.724 514.545 67.6558C514.706 67.5876 514.843 67.5421 514.957 67.4966L515.278 68.7925V68.747Z" fill="white"/>
<path d="M519.193 69.2019C518.667 69.2019 518.186 69.1109 517.751 68.9291C517.339 68.7472 516.972 68.5199 516.675 68.2016C516.377 67.9061 516.148 67.5423 515.988 67.1558C515.828 66.7694 515.759 66.3602 515.759 65.9282C515.759 65.4963 515.828 65.0643 515.988 64.6551C516.148 64.2459 516.377 63.9049 516.652 63.6094C516.95 63.3138 517.316 63.0638 517.728 62.9046C518.163 62.7227 518.621 62.6545 519.147 62.6545C519.674 62.6545 520.178 62.7455 520.59 62.9046C521.002 63.0865 521.368 63.3138 521.666 63.6094C521.963 63.9049 522.192 64.2459 522.353 64.6551C522.513 65.0643 522.581 65.4735 522.581 65.9282C522.581 66.3829 522.49 66.7694 522.353 67.1558C522.215 67.5423 521.963 67.8833 521.666 68.2016C521.368 68.4971 521.002 68.7472 520.59 68.9291C520.178 69.1109 519.697 69.2019 519.147 69.2019H519.193ZM517.476 65.9282C517.476 66.292 517.545 66.6102 517.705 66.9058C517.865 67.2013 518.071 67.4059 518.323 67.565C518.575 67.7242 518.873 67.7924 519.193 67.7924C519.514 67.7924 519.788 67.7014 520.063 67.5423C520.338 67.3832 520.521 67.1558 520.681 66.883C520.842 66.6102 520.91 66.2692 520.91 65.9055C520.91 65.5417 520.842 65.2235 520.681 64.9507C520.521 64.6779 520.315 64.4505 520.063 64.2914C519.811 64.1322 519.514 64.0413 519.193 64.0413C518.873 64.0413 518.598 64.1322 518.323 64.2914C518.071 64.4505 517.865 64.6779 517.705 64.9507C517.545 65.2235 517.476 65.5645 517.476 65.9282Z" fill="white"/>
<path d="M523.726 60.1992H525.397V67.042C525.397 67.3376 525.443 67.5422 525.558 67.6558C525.649 67.7468 525.787 67.815 525.947 67.815C526.107 67.815 526.244 67.815 526.382 67.7695C526.519 67.7468 526.634 67.7013 526.748 67.6331L526.977 68.8835C526.748 68.9971 526.496 69.0653 526.199 69.1335C525.901 69.2017 525.626 69.2245 525.374 69.2245C524.848 69.2245 524.436 69.0881 524.161 68.8153C523.863 68.5425 523.726 68.156 523.726 67.6558V60.2219V60.1992Z" fill="white"/>
<path d="M480.96 4.13744C482.127 4.0465 483.318 4.38751 484.485 4.79672C484.989 4.97859 485.447 5.27413 485.951 5.43327C486.821 5.70607 487.691 5.95614 488.561 6.18348C489.637 6.45629 490.736 6.50175 491.835 6.41082C492.727 6.34262 493.597 6.16075 494.467 5.97888C495.154 5.81974 495.818 5.56967 496.505 5.3196C497.054 5.11499 497.581 4.84219 498.13 4.66032C498.817 4.45571 499.55 4.25111 500.26 4.18291C501.038 4.1147 501.839 4.1147 502.618 4.20564C503.442 4.31931 504.243 4.52391 504.976 4.93312C505.663 5.3196 506.326 5.77427 506.99 6.20622C507.174 6.31988 507.311 6.52449 507.403 6.70636C507.563 7.0701 507.403 7.43384 507.036 7.72938C506.716 7.97945 506.372 7.97945 506.029 7.75211C505.502 7.41111 504.976 7.04737 504.449 6.70636C503.785 6.27442 503.007 6.06981 502.228 5.97888C501.313 5.86521 500.351 5.84247 499.458 6.16075C498.726 6.41082 497.993 6.70636 497.26 6.97917C496.139 7.41111 495.017 7.77485 493.826 8.00219C492.613 8.22952 491.422 8.32046 490.209 8.20679C489.202 8.13859 488.217 7.95672 487.233 7.72938C486.477 7.57024 485.745 7.2747 485.012 7.02463C484.463 6.82003 483.959 6.56996 483.409 6.36535C482.036 5.86521 480.639 5.72881 479.197 6.11528C478.419 6.31988 477.686 6.61542 477.022 7.04737C476.198 7.59298 475.488 8.25226 474.962 9.07068C473.451 11.3668 473.061 13.913 473.428 16.5728C473.542 17.3458 473.657 18.1187 473.84 18.8689C474.023 19.6192 474.298 20.3466 474.572 21.0741C474.87 21.8243 475.19 22.5746 475.557 23.3248C475.877 24.0068 476.289 24.6661 476.633 25.3254C476.976 25.9619 477.32 26.5984 477.617 27.235C477.915 27.8261 478.167 28.4399 478.419 29.0764C478.556 29.4402 478.716 29.8039 478.785 30.1904C478.945 31.0315 479.06 31.8954 479.174 32.7593C479.357 34.1461 479.449 35.5328 479.678 36.8969C479.838 37.8971 480.067 38.8747 480.387 39.8295C480.593 40.4661 480.983 41.0799 481.326 41.6482C482.036 42.8077 482.906 43.8761 483.844 44.8764C484.119 45.172 484.417 45.422 484.714 45.6948C484.783 45.763 484.898 45.763 484.989 45.8085C485.035 45.7176 485.104 45.6266 485.104 45.513C485.127 45.0356 485.127 44.5582 485.149 44.1035C485.218 42.9668 485.264 41.8301 485.378 40.6934C485.47 39.7613 485.653 38.852 485.813 37.9199C485.928 37.2833 486.042 36.6241 486.203 35.9875C486.454 35.01 486.752 34.0324 487.05 33.0548C487.256 32.441 487.462 31.8045 487.736 31.2134C488.149 30.3723 488.492 29.4856 489.316 28.9173C490.209 28.3262 491.148 28.2353 492.155 28.6445C492.911 28.9628 493.323 29.5538 493.712 30.2131C494.307 31.2589 494.719 32.3501 495.085 33.4641C495.383 34.3734 495.589 35.2828 495.818 36.2148C496.001 36.9196 496.139 37.6471 496.276 38.3746C496.322 38.6474 496.322 38.9202 496.368 39.193C496.688 41.0117 496.688 42.8531 496.825 44.6718C496.825 44.9446 496.825 45.2402 496.871 45.513C496.871 45.6039 496.94 45.7403 497.031 45.7858C497.077 45.8085 497.215 45.7403 497.283 45.6721C498.314 44.8082 499.138 43.7852 499.916 42.694C500.42 41.9892 500.901 41.2618 501.313 40.4888C501.61 39.9432 501.771 39.3294 501.931 38.7156C502.114 37.9881 502.274 37.2606 502.389 36.5331C502.503 35.7374 502.572 34.9645 502.686 34.1688C502.732 33.8051 502.778 33.4186 502.847 33.0548C502.961 32.5774 503.282 32.3956 503.854 32.441C504.289 32.4865 504.609 32.782 504.609 33.2367C504.609 33.5777 504.564 33.9415 504.541 34.2825C504.426 35.7147 504.243 37.1242 503.877 38.511C503.739 39.0566 503.648 39.6249 503.465 40.1478C503.282 40.6479 503.053 41.1481 502.778 41.6255C502.251 42.4894 501.702 43.3533 501.107 44.1717C500.191 45.422 499.184 46.6042 497.856 47.4681C497.466 47.7182 497.031 47.8773 496.551 47.8773C495.818 47.8773 495.269 47.3999 495.154 46.8088C495.04 46.2859 495.017 45.763 494.971 45.2174C494.879 43.7397 494.834 42.2848 494.696 40.8071C494.582 39.6477 494.422 38.511 494.17 37.3743C493.895 36.1012 493.529 34.8508 493.139 33.6232C492.865 32.782 492.498 31.9864 492.132 31.1907C491.995 30.8951 491.789 30.6451 491.583 30.395C491.193 29.963 490.415 30.1449 490.117 30.6678C489.247 32.1455 488.652 33.7369 488.263 35.3964C487.965 36.6241 487.668 37.8517 487.462 39.0793C487.073 41.3754 486.981 43.6943 486.935 46.0131C486.935 46.4451 486.889 46.8543 486.615 47.218C486.18 47.8546 485.264 48.0592 484.554 47.6954C483.272 47.0589 482.333 46.0586 481.486 44.9674C480.777 44.058 480.113 43.1032 479.495 42.1256C479.014 41.3982 478.647 40.6252 478.396 39.7841C477.709 37.4425 477.457 35.0554 477.251 32.6229C477.182 31.7818 476.953 30.9633 476.747 30.1449C476.427 28.8491 475.763 27.6669 475.145 26.4848C474.824 25.871 474.435 25.2571 474.092 24.6433C473.84 24.1887 473.634 23.7112 473.428 23.2566C473.13 22.5973 472.855 21.938 472.603 21.2787C472.443 20.8695 472.306 20.4376 472.191 20.0056C472.031 19.4146 471.871 18.8235 471.733 18.2324C471.733 18.1642 471.688 18.096 471.688 18.0278C471.505 16.6183 471.23 15.1861 471.413 13.7538C471.55 12.7763 471.665 11.776 471.962 10.8439C472.581 8.91154 473.611 7.2065 475.259 5.91068C475.969 5.36506 476.747 4.91039 477.617 4.56938C478.647 4.18291 479.701 3.9783 480.891 4.02377L480.96 4.13744Z" fill="white" stroke="white" stroke-width="0.591642" stroke-miterlimit="10"/>
<path d="M509.509 9.45734C511.776 9.5028 513.79 9.66194 515.805 10.0484C516.606 10.2076 517.408 10.3667 518.186 10.594C519.193 10.9123 520.201 11.276 521.185 11.6625C521.62 11.8217 521.78 12.2081 521.735 12.6401C521.574 14.2769 521.391 15.9137 521.254 17.5506C521.162 18.8919 520.865 20.2332 520.544 21.529C520.269 22.6202 519.857 23.666 519.468 24.7345C519.102 25.7575 518.529 26.6896 517.888 27.5535C517.064 28.6674 516.103 29.6677 514.981 30.5088C514.065 31.1909 513.126 31.8501 512.165 32.4867C511.524 32.9186 510.837 33.2824 510.173 33.6461C509.875 33.8053 509.555 33.7825 509.28 33.6461C507.22 32.5094 505.251 31.2591 503.511 29.6904C502.618 28.872 501.84 27.9627 501.176 26.9624C500.535 26.0076 500.054 24.9845 499.665 23.8933C499.39 23.0976 499.115 22.3019 498.886 21.5063C498.726 20.9152 498.611 20.3014 498.52 19.7103C498.337 18.5054 498.154 17.3005 498.016 16.0956C497.879 14.9362 497.833 13.754 497.741 12.5946C497.719 12.1172 498.085 11.6853 498.657 11.4806C499.459 11.2078 500.26 10.935 501.061 10.6622C501.45 10.5258 501.862 10.4349 502.252 10.344C503.946 10.0029 505.64 9.68467 507.38 9.59374C508.158 9.54827 508.937 9.5028 509.486 9.48007L509.509 9.45734ZM510.745 11.2533V11.2988C510.333 11.2988 509.944 11.2988 509.532 11.2988C507.861 11.3442 506.189 11.4124 504.541 11.7307C503.808 11.8671 503.053 12.0263 502.32 12.2081C501.611 12.39 500.924 12.6401 500.214 12.8447C499.687 13.0038 499.642 13.0265 499.687 13.5722C499.779 14.8225 499.871 16.0729 500.031 17.3005C500.214 18.5509 500.443 19.7785 500.718 21.0061C500.901 21.8018 501.176 22.5747 501.473 23.325C501.771 24.0752 502.091 24.8254 502.481 25.5301C503.259 26.8942 504.289 28.0763 505.571 29.0084C506.808 29.9178 508.135 30.7362 509.417 31.6001C509.646 31.7365 509.852 31.691 510.059 31.5546C510.585 31.2136 511.112 30.8726 511.638 30.5543C512.646 29.9632 513.561 29.2812 514.431 28.5083C515.576 27.508 516.492 26.3486 517.179 25.03C517.751 23.9615 518.209 22.8248 518.484 21.6427C518.575 21.188 518.713 20.756 518.804 20.3014C518.987 19.3465 519.147 18.4145 519.331 17.4596C519.399 17.1414 519.445 16.8004 519.468 16.4821C519.56 15.4591 519.651 14.4133 519.743 13.3903C519.743 13.1402 519.651 12.9811 519.376 12.8901C518.964 12.7765 518.575 12.6173 518.163 12.5264C517.156 12.2536 516.148 11.9353 515.118 11.7762C513.653 11.5488 512.188 11.4124 510.7 11.2533H510.745Z" fill="white" stroke="white" stroke-width="0.591642" stroke-miterlimit="10"/>
<path d="M512.348 19.8013C512.783 19.8013 513.195 19.8013 513.63 19.8013C514.088 19.8013 514.454 20.1878 514.454 20.6652C514.454 21.1653 514.088 21.5745 513.63 21.5745C512.805 21.5745 511.981 21.5745 511.18 21.5745C510.768 21.5745 510.699 21.6427 510.699 22.0292C510.699 22.7567 510.722 23.5069 510.699 24.2344C510.699 24.5072 510.539 24.8255 510.356 25.0301C510.15 25.3029 509.806 25.3711 509.44 25.2347C509.051 25.0755 508.822 24.78 508.822 24.3708C508.822 23.6888 508.822 23.0068 508.822 22.3248C508.822 21.5973 508.799 21.5745 508.066 21.5745C507.334 21.5745 506.624 21.5745 505.891 21.5745C505.456 21.5745 505.021 21.1881 505.044 20.6652C505.067 20.1196 505.342 19.8013 505.891 19.7786C506.67 19.7786 507.471 19.7786 508.249 19.7786C508.73 19.7786 508.822 19.7104 508.822 19.233C508.822 18.5055 508.822 17.778 508.822 17.0505C508.822 16.8004 508.936 16.5049 509.097 16.323C509.326 16.0502 509.669 15.9593 510.035 16.0957C510.447 16.2548 510.676 16.5731 510.699 17.005C510.699 17.6871 510.699 18.3691 510.699 19.0511C510.699 19.1875 510.699 19.3239 510.699 19.4376C510.699 19.6649 510.837 19.7558 511.065 19.7558C511.5 19.7558 511.935 19.7558 512.37 19.7558L512.348 19.8013Z" fill="white" stroke="white" stroke-width="0.591642" stroke-miterlimit="10"/>
<path d="M303.599 69.2016C303.027 69.2016 302.477 69.0879 301.951 68.8606C301.447 68.6333 300.989 68.315 300.6 67.9058C300.211 67.4966 299.913 67.0419 299.684 66.4963C299.478 65.9734 299.364 65.3823 299.364 64.7458C299.364 64.1547 299.478 63.5864 299.707 63.0635C299.936 62.5406 300.234 62.0859 300.623 61.6767C301.012 61.2675 301.47 60.972 301.997 60.7446C302.523 60.5173 303.096 60.4036 303.691 60.4036C304.538 60.4036 305.248 60.5855 305.843 60.9038C306.438 61.2448 306.896 61.6995 307.194 62.2905L305.911 63.2226C305.705 62.7907 305.385 62.4724 304.973 62.2451C304.561 62.0177 304.126 61.9041 303.645 61.9041C303.279 61.9041 302.935 61.9723 302.615 62.1314C302.294 62.2905 302.042 62.4951 301.813 62.7679C301.585 63.0408 301.424 63.3363 301.31 63.7C301.195 64.0638 301.127 64.4275 301.127 64.814C301.127 65.2232 301.195 65.6097 301.31 65.9507C301.424 66.2917 301.63 66.61 301.859 66.86C302.088 67.1328 302.363 67.3374 302.683 67.4738C303.004 67.6102 303.347 67.7012 303.737 67.7012C304.194 67.7012 304.629 67.5875 305.042 67.3602C305.454 67.1328 305.843 66.7918 306.186 66.3599V68.0195C305.454 68.7924 304.584 69.1789 303.576 69.1789L303.599 69.2016ZM306.072 65.9279H304.286V64.7003H307.514V69.1334H306.095V65.9279H306.072Z" fill="white"/>
<path d="M308.819 60.2673H310.49V67.1102C310.49 67.4058 310.536 67.6104 310.65 67.724C310.742 67.815 310.879 67.8832 311.04 67.8832C311.2 67.8832 311.337 67.8832 311.475 67.8377C311.612 67.815 311.726 67.7695 311.841 67.7013L312.07 68.9517C311.841 69.0653 311.589 69.1335 311.291 69.2017C310.994 69.2699 310.719 69.2927 310.467 69.2927C309.941 69.2927 309.529 69.1563 309.254 68.8834C308.956 68.6106 308.819 68.2242 308.819 67.724V60.2901V60.2673Z" fill="white"/>
<path d="M312.711 66.792V62.8363H314.405V66.4282C314.405 66.9057 314.497 67.2694 314.68 67.5195C314.863 67.7695 315.138 67.8832 315.504 67.8832C315.71 67.8832 315.939 67.8377 316.145 67.7695C316.351 67.6786 316.557 67.5649 316.74 67.3831C316.923 67.2239 317.061 66.9966 317.198 66.7465V62.8363H318.892V67.3376C318.892 67.4967 318.915 67.6331 318.984 67.7013C319.053 67.7695 319.144 67.815 319.282 67.8377V69.1563C319.121 69.179 318.984 69.2018 318.869 69.2018C318.755 69.2018 318.663 69.2018 318.572 69.2018C318.274 69.2018 318.045 69.1336 317.862 68.9972C317.679 68.8608 317.565 68.6789 317.519 68.4516L317.473 67.9514C317.175 68.3834 316.809 68.7016 316.351 68.929C315.893 69.1563 315.39 69.27 314.84 69.27C314.153 69.27 313.65 69.0654 313.283 68.6334C312.917 68.2015 312.757 67.5877 312.757 66.792H312.711Z" fill="white"/>
<path d="M324.456 68.8379C324.295 68.9061 324.135 68.9743 323.929 69.0425C323.723 69.1107 323.517 69.1789 323.288 69.2244C323.059 69.2699 322.83 69.2926 322.601 69.2926C322.281 69.2926 322.006 69.2471 321.731 69.1335C321.479 69.0198 321.273 68.8607 321.113 68.6333C320.953 68.406 320.884 68.1104 320.884 67.7467V64.1093H320.037V62.8589H320.884V60.7902H322.578V62.8589H323.952V64.1093H322.578V67.2011C322.578 67.4284 322.647 67.5876 322.762 67.6785C322.876 67.7694 323.036 67.8376 323.219 67.8376C323.38 67.8376 323.563 67.8149 323.723 67.7467C323.883 67.6785 324.021 67.633 324.135 67.5876L324.456 68.8834V68.8379Z" fill="white"/>
<path d="M328.393 69.2699C327.867 69.2699 327.386 69.1789 326.974 69.0198C326.539 68.8379 326.195 68.6106 325.875 68.3151C325.577 68.0195 325.348 67.6785 325.188 67.292C325.028 66.9056 324.959 66.4963 324.959 66.0644C324.959 65.4733 325.096 64.9277 325.371 64.4276C325.646 63.9274 326.035 63.5182 326.562 63.2227C327.065 62.9271 327.683 62.768 328.416 62.768C329.149 62.768 329.744 62.9271 330.248 63.2227C330.751 63.5182 331.14 63.9274 331.415 64.4048C331.69 64.8822 331.827 65.4279 331.827 65.9962C331.827 66.1099 331.827 66.2008 331.827 66.2917C331.827 66.3827 331.827 66.4736 331.804 66.5191H326.745C326.768 66.8601 326.859 67.1329 327.019 67.3602C327.18 67.5876 327.386 67.7694 327.638 67.9058C327.889 68.0423 328.164 68.0877 328.439 68.0877C328.782 68.0877 329.103 68.0195 329.4 67.8604C329.698 67.7012 329.904 67.4966 330.019 67.2238L331.438 67.6103C331.278 67.9286 331.072 68.2241 330.774 68.4742C330.476 68.7243 330.133 68.9289 329.744 69.0653C329.332 69.2017 328.897 69.2699 328.393 69.2699ZM326.676 65.4961H330.11C330.087 65.1778 329.973 64.905 329.835 64.6776C329.675 64.4503 329.469 64.2684 329.217 64.132C328.965 63.9956 328.691 63.9274 328.37 63.9274C328.05 63.9274 327.798 63.9956 327.546 64.132C327.294 64.2684 327.088 64.4503 326.951 64.6776C326.791 64.905 326.699 65.1778 326.676 65.4961Z" fill="white"/>
<path d="M338.947 69.1562H337.276V65.6324C337.276 65.1323 337.184 64.7685 337.001 64.5412C336.818 64.3139 336.566 64.2002 336.223 64.2002C335.994 64.2002 335.765 64.2457 335.536 64.3593C335.307 64.473 335.101 64.6321 334.918 64.814C334.735 64.9959 334.597 65.2232 334.506 65.4733V69.1562H332.834V62.8362H334.345V64.0183C334.506 63.7455 334.735 63.5182 334.987 63.3363C335.238 63.1544 335.536 63.018 335.879 62.9044C336.223 62.7907 336.566 62.7452 336.955 62.7452C337.367 62.7452 337.711 62.8134 337.963 62.9498C338.215 63.0862 338.421 63.2909 338.558 63.5182C338.695 63.7683 338.787 64.0183 338.833 64.3139C338.879 64.6094 338.924 64.905 338.924 65.2005V69.1562H338.947Z" fill="white"/>
<path d="M349.364 69.1563L345.174 64.8369C344.808 64.4732 344.533 64.1549 344.327 63.9048C344.121 63.6548 343.961 63.4047 343.869 63.2001C343.778 62.9727 343.732 62.7454 343.732 62.5181C343.732 62.1089 343.847 61.7451 344.053 61.4496C344.259 61.154 344.556 60.904 344.923 60.7448C345.289 60.5629 345.701 60.4948 346.159 60.4948C346.571 60.4948 346.96 60.563 347.304 60.6994C347.67 60.8358 347.968 61.0404 348.174 61.3359C348.402 61.6087 348.517 61.9724 348.517 62.3817C348.517 62.7909 348.425 63.1091 348.219 63.4274C348.013 63.723 347.761 63.9958 347.441 64.2686C347.12 64.5186 346.754 64.7687 346.342 64.996C346.044 65.1779 345.77 65.3598 345.518 65.5417C345.266 65.7235 345.083 65.9054 344.945 66.11C344.808 66.3146 344.739 66.5192 344.739 66.7466C344.739 66.9739 344.808 67.1785 344.945 67.3604C345.083 67.5422 345.266 67.7014 345.495 67.815C345.724 67.9287 345.999 67.9742 346.296 67.9742C346.663 67.9742 347.006 67.8832 347.349 67.7241C347.693 67.565 347.99 67.3149 348.265 66.9966C348.54 66.6783 348.746 66.3146 348.906 65.8599C349.066 65.4053 349.135 64.9278 349.135 64.405H350.509C350.509 65.1552 350.394 65.8372 350.142 66.451C349.891 67.0648 349.57 67.565 349.158 67.9742C348.746 68.3834 348.288 68.7017 347.761 68.929C347.235 69.1336 346.708 69.2473 346.159 69.2473C345.541 69.2473 345.014 69.1336 344.579 68.8835C344.121 68.6562 343.778 68.3379 343.549 67.9514C343.297 67.565 343.183 67.1558 343.183 66.7011C343.183 66.2464 343.297 65.8599 343.503 65.5189C343.709 65.1779 343.984 64.8824 344.327 64.6323C344.648 64.3822 344.991 64.1549 345.312 63.9503C345.678 63.7229 345.999 63.5411 346.25 63.3819C346.502 63.2228 346.685 63.0637 346.823 62.9045C346.96 62.7454 347.029 62.5863 347.029 62.3817C347.029 62.1771 346.96 61.9952 346.8 61.8815C346.64 61.7451 346.456 61.6769 346.205 61.6769C346.022 61.6769 345.884 61.7224 345.724 61.7906C345.587 61.8588 345.472 61.9497 345.403 62.0861C345.335 62.1998 345.289 62.3362 345.289 62.4953C345.289 62.609 345.312 62.7227 345.38 62.8363C345.449 62.95 345.564 63.1091 345.747 63.2683C345.93 63.4274 346.159 63.7002 346.479 64.0185L351.562 69.1791H349.364V69.1563Z" fill="white"/>
<path d="M355.5 69.1563V60.5175H357.217V67.6786H361.75V69.1563H355.5Z" fill="white"/>
<path d="M362.208 67.292C362.208 66.8828 362.322 66.519 362.574 66.2235C362.803 65.928 363.147 65.6779 363.559 65.5188C363.971 65.3369 364.474 65.2687 365.024 65.2687C365.299 65.2687 365.573 65.2687 365.871 65.3369C366.146 65.3824 366.398 65.4506 366.604 65.5188V65.1778C366.604 64.7913 366.489 64.4957 366.237 64.2684C365.985 64.0411 365.642 63.9501 365.138 63.9501C364.772 63.9501 364.429 64.0183 364.108 64.132C363.788 64.2457 363.444 64.4275 363.078 64.6549L362.551 63.5864C362.986 63.3136 363.421 63.0862 363.879 62.9498C364.337 62.8134 364.818 62.7452 365.322 62.7452C366.26 62.7452 366.993 62.9726 367.497 63.4045C368 63.8365 368.275 64.4957 368.275 65.3369V67.3375C368.275 67.4966 368.298 67.633 368.366 67.7012C368.435 67.7694 368.527 67.8149 368.664 67.8376V69.1562C368.504 69.1789 368.389 69.2016 368.252 69.2244C368.138 69.2244 368.023 69.2244 367.954 69.2244C367.611 69.2244 367.359 69.1562 367.199 69.0198C367.039 68.8834 366.924 68.7015 366.901 68.4969L366.855 68.1786C366.558 68.5424 366.214 68.8152 365.779 68.997C365.344 69.2016 364.909 69.2926 364.474 69.2926C364.039 69.2926 363.65 69.2016 363.307 69.0198C362.963 68.8379 362.689 68.6106 362.483 68.315C362.277 68.0195 362.185 67.6785 362.185 67.3147L362.208 67.292ZM366.306 67.5875C366.306 67.5875 366.466 67.4057 366.535 67.3147C366.604 67.2238 366.627 67.1329 366.627 67.0419V66.4054C366.42 66.3372 366.214 66.269 365.963 66.2235C365.734 66.178 365.505 66.1553 365.299 66.1553C364.864 66.1553 364.497 66.2462 364.223 66.4281C363.948 66.61 363.811 66.8373 363.811 67.1329C363.811 67.292 363.856 67.4511 363.948 67.5875C364.039 67.7239 364.177 67.8603 364.337 67.9285C364.52 68.0195 364.726 68.065 364.978 68.065C365.23 68.065 365.482 68.0195 365.711 67.9285C365.963 67.8376 366.146 67.7239 366.306 67.5648V67.5875Z" fill="white"/>
<path d="M372.899 69.2699C372.35 69.2699 371.869 69.1789 371.457 69.0198C371.045 68.8379 370.679 68.6106 370.381 68.2923C370.083 67.974 369.855 67.633 369.694 67.2466C369.534 66.8601 369.465 66.4509 369.465 66.0189C369.465 65.4279 369.603 64.8822 369.877 64.4048C370.152 63.9274 370.541 63.5182 371.068 63.2227C371.594 62.9271 372.19 62.768 372.899 62.768C373.609 62.768 374.227 62.9271 374.731 63.2227C375.235 63.5182 375.624 63.9047 375.853 64.4048L374.227 64.8823C374.09 64.6549 373.907 64.473 373.655 64.3366C373.426 64.2002 373.151 64.1548 372.877 64.1548C372.579 64.1548 372.281 64.223 372.029 64.3821C371.778 64.5412 371.572 64.7458 371.411 65.0414C371.251 65.3142 371.182 65.6552 371.182 66.0417C371.182 66.4281 371.251 66.7237 371.411 67.0192C371.572 67.3148 371.778 67.5194 372.029 67.6785C372.281 67.8376 372.579 67.9058 372.899 67.9058C373.105 67.9058 373.289 67.8831 373.472 67.8149C373.655 67.7467 373.815 67.6558 373.953 67.5421C374.09 67.4284 374.204 67.292 374.273 67.1556L375.899 67.633C375.738 67.9513 375.532 68.2241 375.235 68.4742C374.937 68.7243 374.617 68.9289 374.227 69.0653C373.838 69.2017 373.403 69.2699 372.922 69.2699H372.899Z" fill="white"/>
<path d="M380.844 68.8379C380.684 68.9061 380.523 68.9743 380.317 69.0425C380.111 69.1107 379.905 69.1789 379.676 69.2244C379.447 69.2699 379.218 69.2926 378.989 69.2926C378.669 69.2926 378.394 69.2471 378.119 69.1335C377.868 69.0198 377.662 68.8607 377.501 68.6333C377.341 68.406 377.272 68.1104 377.272 67.7467V64.1093H376.425V62.8589H377.272V60.7902H378.967V62.8589H380.34V64.1093H378.967V67.2011C378.967 67.4284 379.035 67.5876 379.15 67.6785C379.264 67.7694 379.424 67.8376 379.608 67.8376C379.768 67.8376 379.951 67.8149 380.111 67.7467C380.272 67.6785 380.409 67.633 380.523 67.5876L380.844 68.8834V68.8379Z" fill="white"/>
<path d="M384.759 69.2699C384.232 69.2699 383.751 69.1789 383.316 68.9971C382.904 68.8152 382.538 68.5879 382.24 68.2696C381.943 67.974 381.714 67.6103 381.554 67.2238C381.393 66.8374 381.325 66.4281 381.325 65.9962C381.325 65.5643 381.393 65.1323 381.554 64.7231C381.714 64.3139 381.943 63.9729 382.218 63.6774C382.515 63.3818 382.882 63.1317 383.294 62.9726C383.729 62.7907 384.186 62.7225 384.713 62.7225C385.24 62.7225 385.743 62.8135 386.155 62.9726C386.567 63.1545 386.934 63.3818 387.231 63.6774C387.529 63.9729 387.758 64.3139 387.918 64.7231C388.078 65.1096 388.147 65.5415 388.147 65.9962C388.147 66.4509 388.056 66.8374 387.918 67.2238C387.758 67.6103 387.529 67.9513 387.231 68.2696C386.934 68.5651 386.567 68.8152 386.155 68.9971C385.743 69.1789 385.262 69.2699 384.713 69.2699H384.759ZM383.042 65.9962C383.042 66.3599 383.11 66.6782 383.271 66.9738C383.431 67.2693 383.637 67.4739 383.889 67.633C384.141 67.7922 384.438 67.8604 384.759 67.8604C385.079 67.8604 385.354 67.7694 385.629 67.6103C385.904 67.4512 386.087 67.2238 386.247 66.951C386.407 66.6782 386.476 66.3372 386.476 65.9735C386.476 65.6097 386.407 65.2915 386.247 65.0186C386.087 64.7458 385.881 64.5185 385.629 64.3594C385.377 64.2002 385.079 64.1093 384.759 64.1093C384.438 64.1093 384.164 64.2002 383.889 64.3594C383.637 64.5185 383.431 64.7458 383.271 65.0186C383.11 65.2915 383.042 65.6325 383.042 65.9962Z" fill="white"/>
<path d="M391.742 69.2699C391.192 69.2699 390.643 69.1789 390.139 68.9971C389.635 68.8152 389.177 68.5651 388.834 68.2014L389.452 67.1329C389.841 67.4512 390.208 67.6785 390.597 67.8149C390.986 67.9513 391.329 68.0422 391.696 68.0422C392.016 68.0422 392.291 67.9968 392.474 67.8831C392.68 67.7694 392.772 67.6103 392.772 67.383C392.772 67.2238 392.726 67.1102 392.612 67.0192C392.497 66.9283 392.337 66.8601 392.131 66.8146C391.925 66.7464 391.673 66.6782 391.375 66.61C390.894 66.4736 390.482 66.3145 390.162 66.1781C389.841 66.0189 389.59 65.8371 389.429 65.6325C389.269 65.4279 389.177 65.1323 389.177 64.7913C389.177 64.3821 389.292 64.0184 389.498 63.7228C389.727 63.4273 390.024 63.1999 390.437 63.0181C390.826 62.8589 391.307 62.768 391.833 62.768C392.291 62.768 392.749 62.8362 393.161 62.9726C393.573 63.109 393.962 63.3363 394.306 63.6546L393.619 64.7004C393.298 64.4503 392.978 64.2457 392.68 64.132C392.383 64.0184 392.085 63.9502 391.764 63.9502C391.581 63.9502 391.421 63.9502 391.261 64.0184C391.1 64.0866 390.986 64.132 390.894 64.223C390.803 64.3139 390.757 64.4503 390.757 64.6094C390.757 64.7458 390.803 64.8595 390.894 64.9504C390.986 65.0414 391.123 65.1096 391.284 65.1778C391.444 65.246 391.673 65.3142 391.948 65.3824C392.474 65.5188 392.909 65.6779 393.275 65.8143C393.642 65.9507 393.916 66.1553 394.1 66.3827C394.283 66.61 394.374 66.9056 394.374 67.292C394.374 67.9058 394.145 68.406 393.665 68.747C393.184 69.088 392.543 69.2699 391.742 69.2699Z" fill="white"/>
<path d="M398.541 69.2699C398.014 69.2699 397.534 69.1789 397.122 69.0198C396.687 68.8379 396.343 68.6106 396.023 68.3151C395.725 68.0195 395.496 67.6785 395.336 67.292C395.176 66.9056 395.107 66.4963 395.107 66.0644C395.107 65.4733 395.244 64.9277 395.519 64.4276C395.794 63.9274 396.183 63.5182 396.71 63.2227C397.213 62.9271 397.831 62.768 398.564 62.768C399.297 62.768 399.892 62.9271 400.395 63.2227C400.899 63.5182 401.288 63.9274 401.563 64.4048C401.838 64.8822 401.975 65.4279 401.975 65.9962C401.975 66.1099 401.975 66.2008 401.975 66.2917C401.975 66.3827 401.975 66.4736 401.952 66.5191H396.893C396.916 66.8601 397.007 67.1329 397.167 67.3602C397.328 67.5876 397.534 67.7694 397.786 67.9058C398.037 68.0423 398.312 68.0877 398.587 68.0877C398.93 68.0877 399.251 68.0195 399.548 67.8604C399.846 67.7012 400.052 67.4966 400.167 67.2238L401.586 67.6103C401.426 67.9286 401.22 68.2241 400.922 68.4742C400.624 68.7243 400.281 68.9289 399.892 69.0653C399.48 69.2017 399.045 69.2699 398.541 69.2699ZM396.824 65.4961H400.258C400.235 65.1778 400.121 64.905 399.983 64.6776C399.823 64.4503 399.617 64.2684 399.365 64.132C399.113 63.9956 398.839 63.9274 398.518 63.9274C398.198 63.9274 397.946 63.9956 397.694 64.132C397.442 64.2684 397.236 64.4503 397.099 64.6776C396.938 64.905 396.847 65.1778 396.824 65.4961Z" fill="white"/>
<path d="M406.188 69.1563V60.5175H412.163V61.9952H407.927V64.2231H411.453V65.6098H407.927V69.179H406.21L406.188 69.1563Z" fill="white"/>
<path d="M416.627 64.1774C416.101 64.1774 415.643 64.2911 415.254 64.473C414.864 64.6548 414.567 64.9276 414.384 65.2914V69.1561H412.712V62.8361H414.246V64.132C414.475 63.7 414.773 63.359 415.139 63.0862C415.505 62.8361 415.895 62.6997 416.284 62.677C416.375 62.677 416.444 62.677 416.49 62.677C416.536 62.677 416.581 62.677 416.627 62.677V64.1547V64.1774Z" fill="white"/>
<path d="M420.611 69.2699C420.084 69.2699 419.604 69.1789 419.191 69.0198C418.756 68.8379 418.413 68.6106 418.093 68.3151C417.795 68.0195 417.566 67.6785 417.406 67.292C417.245 66.9056 417.177 66.4963 417.177 66.0644C417.177 65.4733 417.314 64.9277 417.589 64.4276C417.864 63.9274 418.253 63.5182 418.779 63.2227C419.283 62.9271 419.901 62.768 420.634 62.768C421.366 62.768 421.962 62.9271 422.465 63.2227C422.969 63.5182 423.358 63.9274 423.633 64.4048C423.908 64.8822 424.045 65.4279 424.045 65.9962C424.045 66.1099 424.045 66.2008 424.045 66.2917C424.045 66.3827 424.045 66.4736 424.022 66.5191H418.962C418.985 66.8601 419.077 67.1329 419.237 67.3602C419.397 67.5876 419.604 67.7694 419.855 67.9058C420.107 68.0423 420.382 68.0877 420.657 68.0877C421 68.0877 421.321 68.0195 421.618 67.8604C421.916 67.7012 422.122 67.4966 422.236 67.2238L423.656 67.6103C423.496 67.9286 423.289 68.2241 422.992 68.4742C422.694 68.7243 422.351 68.9289 421.962 69.0653C421.55 69.2017 421.115 69.2699 420.611 69.2699ZM418.894 65.4961H422.328C422.305 65.1778 422.191 64.905 422.053 64.6776C421.893 64.4503 421.687 64.2684 421.435 64.132C421.183 63.9956 420.909 63.9274 420.588 63.9274C420.267 63.9274 420.016 63.9956 419.764 64.132C419.512 64.2684 419.306 64.4503 419.169 64.6776C419.008 64.905 418.917 65.1778 418.894 65.4961Z" fill="white"/>
<path d="M428.097 69.2699C427.571 69.2699 427.09 69.1789 426.678 69.0198C426.243 68.8379 425.899 68.6106 425.579 68.3151C425.281 68.0195 425.052 67.6785 424.892 67.292C424.732 66.9056 424.663 66.4963 424.663 66.0644C424.663 65.4733 424.8 64.9277 425.075 64.4276C425.35 63.9274 425.739 63.5182 426.266 63.2227C426.769 62.9271 427.387 62.768 428.12 62.768C428.853 62.768 429.448 62.9271 429.952 63.2227C430.455 63.5182 430.844 63.9274 431.119 64.4048C431.394 64.8822 431.531 65.4279 431.531 65.9962C431.531 66.1099 431.531 66.2008 431.531 66.2917C431.531 66.3827 431.531 66.4736 431.508 66.5191H426.449C426.472 66.8601 426.563 67.1329 426.724 67.3602C426.884 67.5876 427.09 67.7694 427.342 67.9058C427.594 68.0423 427.868 68.0877 428.143 68.0877C428.486 68.0877 428.807 68.0195 429.105 67.8604C429.402 67.7012 429.608 67.4966 429.723 67.2238L431.142 67.6103C430.982 67.9286 430.776 68.2241 430.478 68.4742C430.181 68.7243 429.837 68.9289 429.448 69.0653C429.036 69.2017 428.601 69.2699 428.097 69.2699ZM426.38 65.4961H429.814C429.791 65.1778 429.677 64.905 429.54 64.6776C429.379 64.4503 429.173 64.2684 428.921 64.132C428.67 63.9956 428.395 63.9274 428.074 63.9274C427.754 63.9274 427.502 63.9956 427.25 64.132C426.998 64.2684 426.792 64.4503 426.655 64.6776C426.495 64.905 426.403 65.1778 426.38 65.4961Z" fill="white"/>
<path d="M376.769 19.4375C375.097 21.0743 372.739 21.7109 370.564 21.3017C370.152 19.1874 370.793 16.914 372.487 15.2772C374.182 13.6404 376.517 13.0038 378.692 13.413C379.104 15.5273 378.463 17.8007 376.769 19.4375Z" fill="white"/>
<path d="M372.35 29.0309C369.969 29.0309 367.863 27.8715 366.604 26.0983C367.863 24.325 369.969 23.1656 372.35 23.1656C374.731 23.1656 376.837 24.325 378.096 26.0983C376.837 27.8715 374.731 29.0309 372.35 29.0309Z" fill="white"/>
<path d="M368.687 19.5739C368.687 21.8927 367.497 23.9388 365.665 25.1437C363.834 23.9388 362.643 21.87 362.643 19.5739C362.643 17.2778 363.834 15.209 365.665 14.0041C367.497 15.209 368.687 17.2778 368.687 19.5739Z" fill="white"/>
<path d="M366.444 34.7827C364.063 34.7827 361.956 33.6233 360.697 31.8501C361.956 30.0768 364.063 28.9174 366.444 28.9174C368.825 28.9174 370.931 30.0768 372.19 31.8501C370.931 33.6233 368.825 34.7827 366.444 34.7827Z" fill="white"/>
<path d="M362.78 25.3253C362.78 27.6441 361.59 29.6902 359.758 30.8951C357.927 29.6902 356.736 27.6214 356.736 25.3253C356.736 23.0292 357.927 20.9604 359.758 19.7555C361.59 20.9604 362.78 23.0292 362.78 25.3253Z" fill="white"/>
<path d="M360.536 40.5117C358.155 40.5117 356.049 39.3523 354.79 37.579C356.049 35.8058 358.155 34.6464 360.536 34.6464C362.917 34.6464 365.024 35.8058 366.283 37.579C365.024 39.3523 362.917 40.5117 360.536 40.5117Z" fill="white"/>
<path d="M356.874 31.0771C356.874 33.396 355.683 35.442 353.852 36.6469C352.02 35.442 350.83 33.3732 350.83 31.0771C350.83 28.781 352.02 26.7122 353.852 25.5073C355.683 26.7122 356.874 28.781 356.874 31.0771Z" fill="white"/>
<path d="M346.96 10.7986L349.639 8.20697L383.797 41.3983L381.118 43.99L346.96 10.7986Z" fill="white"/>
<path d="M349.639 9.02538L382.973 41.3983L381.141 43.1716L347.807 10.7986L349.639 9.02538ZM349.639 7.38855L348.815 8.18423L346.983 9.95747L346.113 10.7986L346.983 11.6398L380.317 44.0127L381.141 44.8084L381.965 44.0127L383.797 42.2395L384.667 41.3983L383.797 40.5572L350.463 8.18423L349.639 7.38855Z" fill="white"/>
<path d="M365.391 49.0369C378.414 49.0369 388.971 38.7772 388.971 26.1212C388.971 13.4653 378.414 3.20557 365.391 3.20557C352.367 3.20557 341.81 13.4653 341.81 26.1212C341.81 38.7772 352.367 49.0369 365.391 49.0369Z" stroke="white" stroke-width="2.45422" stroke-miterlimit="10"/>
<path d="M4.32694 69.1337C3.6859 69.1337 3.09065 69.02 2.56409 68.7699C2.03752 68.5199 1.57964 68.2016 1.19044 67.7696C0.801239 67.3604 0.503616 66.883 0.297569 66.3602C0.0915214 65.8373 -0.0229492 65.2917 -0.0229492 64.746C-0.0229492 64.2004 0.0915214 63.6094 0.297569 63.0865C0.52651 62.5636 0.824133 62.1089 1.21333 61.677C1.60253 61.2678 2.06042 60.9495 2.58698 60.6994C3.11355 60.4494 3.70879 60.3357 4.32694 60.3357C4.94508 60.3357 5.56322 60.4721 6.08978 60.7222C6.61635 60.9722 7.07423 61.3132 7.44054 61.7225C7.80684 62.1317 8.10447 62.6091 8.31051 63.132C8.51656 63.6548 8.60814 64.1777 8.60814 64.746C8.60814 65.3144 8.49367 65.86 8.28762 66.3829C8.08157 66.9058 7.78395 67.3604 7.39475 67.7924C7.00555 68.2016 6.54767 68.5199 6.0211 68.7472C5.49454 68.9745 4.92218 69.1109 4.28115 69.1109L4.32694 69.1337ZM1.76279 64.746C1.76279 65.1098 1.83148 65.4735 1.94595 65.8373C2.06042 66.201 2.22068 66.4966 2.44962 66.7694C2.67856 67.0422 2.93039 67.2468 3.27381 67.4059C3.59432 67.565 3.96063 67.6332 4.37272 67.6332C4.78482 67.6332 5.17402 67.5423 5.49454 67.3832C5.81505 67.224 6.08978 66.9967 6.29583 66.7239C6.50188 66.4511 6.68503 66.1328 6.7995 65.7918C6.91397 65.4508 6.95976 65.0871 6.95976 64.746C6.95976 64.3823 6.89108 64.0186 6.77661 63.6776C6.66214 63.3366 6.47898 63.0183 6.27294 62.7455C6.044 62.4727 5.76927 62.2681 5.44875 62.1089C5.12823 61.9498 4.76192 61.8816 4.34983 61.8816C3.93774 61.8816 3.57143 61.9725 3.25091 62.1317C2.93039 62.2908 2.65566 62.5181 2.42672 62.7909C2.19778 63.0638 2.03752 63.382 1.92305 63.723C1.80858 64.064 1.76279 64.4278 1.76279 64.7688V64.746Z" fill="white"/>
<path d="M13.7825 69.2016C13.2788 69.2016 12.821 69.0879 12.4318 68.8606C12.0426 68.6333 11.7449 68.3377 11.516 67.974V71.6796H9.84473V62.7679H11.31V63.8592C11.5618 63.4954 11.8823 63.1999 12.2715 62.9953C12.6607 62.7907 13.0957 62.677 13.5765 62.677C14.0115 62.677 14.4236 62.7679 14.7899 62.9271C15.1562 63.0862 15.4767 63.3363 15.7743 63.6318C16.049 63.9274 16.278 64.2911 16.4153 64.6776C16.5756 65.0641 16.6443 65.496 16.6443 65.9279C16.6443 66.5418 16.5298 67.0874 16.278 67.5875C16.0261 68.0876 15.7056 68.4741 15.2706 68.7697C14.8356 69.0652 14.3549 69.2016 13.7825 69.2016ZM13.2102 67.8148C13.462 67.8148 13.6909 67.7694 13.897 67.6557C14.103 67.5648 14.2862 67.4056 14.4464 67.2465C14.6067 67.0646 14.7212 66.86 14.7899 66.6327C14.8814 66.4053 14.9043 66.1553 14.9043 65.9052C14.9043 65.6551 14.8585 65.4051 14.767 65.1777C14.6754 64.9504 14.5609 64.7458 14.3778 64.5866C14.2175 64.4275 14.0115 64.2911 13.8054 64.2002C13.5994 64.1092 13.3475 64.0638 13.0728 64.0638C12.9125 64.0638 12.7752 64.0865 12.592 64.132C12.4318 64.1774 12.2715 64.2456 12.1112 64.3593C11.951 64.4502 11.8365 64.5639 11.722 64.6776C11.6076 64.7912 11.516 64.9504 11.4473 65.1095V66.5872C11.5618 66.8146 11.6992 67.0192 11.8594 67.2238C12.0197 67.4056 12.2257 67.5648 12.4547 67.6784C12.6836 67.7921 12.9125 67.8376 13.1415 67.8376L13.2102 67.8148Z" fill="white"/>
<path d="M21.7037 68.747C21.5435 68.8152 21.3832 68.8834 21.1772 68.9516C20.9711 69.0198 20.7651 69.088 20.5361 69.1335C20.3072 69.1789 20.0782 69.2017 19.8493 69.2017C19.5288 69.2017 19.2541 69.1562 18.9793 69.0425C18.7275 68.9289 18.5214 68.7697 18.3612 68.5424C18.2009 68.315 18.1322 68.0195 18.1322 67.6558V64.0184H17.2852V62.768H18.1322V60.6992H19.8264V62.768H21.2001V64.0184H19.8264V67.1102C19.8264 67.3375 19.8951 67.4966 20.0096 67.5876C20.124 67.6785 20.2843 67.7467 20.4674 67.7467C20.6277 67.7467 20.8109 67.724 20.9711 67.6558C21.1314 67.5876 21.2687 67.5421 21.3832 67.4966L21.7037 68.7925V68.747Z" fill="white"/>
<path d="M22.5967 61.7905V60.1764H24.268V61.7905H22.5967ZM22.5967 69.0653V62.6998H24.268V69.0653H22.5967Z" fill="white"/>
<path d="M35.9666 69.0655H34.2954V65.5417C34.2954 65.0416 34.2038 64.6779 34.0206 64.4505C33.8375 64.2232 33.5857 64.1095 33.2651 64.1095C32.9217 64.1095 32.6241 64.2232 32.3265 64.4732C32.0289 64.7233 31.8228 65.0416 31.7083 65.4053V69.0655H30.0142V65.5417C30.0142 65.0416 29.9226 64.6779 29.7394 64.4505C29.5563 64.2232 29.3273 64.1095 29.0068 64.1095C28.6863 64.1095 28.3658 64.2232 28.0682 64.4732C27.7705 64.7233 27.5645 65.0189 27.4271 65.4053V69.0882H25.7559V62.7682H27.2669V63.9504C27.5187 63.5412 27.8621 63.2229 28.2742 62.9955C28.6863 62.7682 29.1671 62.6545 29.7165 62.6545C30.266 62.6545 30.6781 62.7909 30.9986 63.041C31.2962 63.2911 31.5023 63.6094 31.571 63.9958C31.8457 63.5639 32.1891 63.2229 32.6012 62.9955C33.0133 62.7682 33.4941 62.6545 34.0206 62.6545C34.4327 62.6545 34.7533 62.7227 35.0051 62.8591C35.2569 62.9955 35.463 63.1774 35.6003 63.4275C35.7377 63.6548 35.8293 63.9276 35.898 64.2232C35.9437 64.5187 35.9895 64.8143 35.9895 65.1098V69.0655H35.9666Z" fill="white"/>
<path d="M37.4321 61.7905V60.1764H39.1034V61.7905H37.4321ZM37.4321 69.0653V62.6998H39.1034V69.0653H37.4321Z" fill="white"/>
<path d="M40.1792 68.0877L43.8194 63.9047H40.3395V62.768H45.6051V63.7683L42.0107 67.9286H45.6738V69.0653H40.2021V68.0877H40.1792Z" fill="white"/>
<path d="M49.8633 69.2016C49.3368 69.2016 48.856 69.1107 48.4439 68.9516C48.0089 68.7697 47.6655 68.5424 47.345 68.2468C47.0473 67.9513 46.8184 67.6103 46.6581 67.2238C46.4979 66.8373 46.4292 66.4281 46.4292 65.9962C46.4292 65.4051 46.5666 64.8595 46.8413 64.3593C47.116 63.8592 47.5052 63.45 48.0318 63.1544C48.5355 62.8589 49.1536 62.6998 49.8862 62.6998C50.6188 62.6998 51.2141 62.8589 51.7177 63.1544C52.2214 63.45 52.6106 63.8592 52.8853 64.3366C53.1601 64.814 53.2974 65.3596 53.2974 65.928C53.2974 66.0416 53.2974 66.1326 53.2974 66.2235C53.2974 66.3144 53.2974 66.4054 53.2745 66.4508H48.2149C48.2378 66.7919 48.3294 67.0647 48.4897 67.292C48.6499 67.5193 48.856 67.7012 49.1078 67.8376C49.3596 67.974 49.6344 68.0195 49.9091 68.0195C50.2525 68.0195 50.573 67.9513 50.8707 67.7921C51.1683 67.633 51.3743 67.4284 51.4888 67.1556L52.9082 67.5421C52.748 67.8603 52.5419 68.1559 52.2443 68.406C51.9467 68.656 51.6033 68.8606 51.2141 68.997C50.802 69.1334 50.367 69.2016 49.8633 69.2016ZM48.1463 65.4051H51.5804C51.5575 65.0868 51.443 64.814 51.3056 64.5867C51.1454 64.3593 50.9393 64.1775 50.6875 64.0411C50.4357 63.9047 50.1609 63.8365 49.8404 63.8365C49.5199 63.8365 49.2681 63.9047 49.0162 64.0411C48.7644 64.1775 48.5584 64.3593 48.421 64.5867C48.2607 64.814 48.1692 65.0868 48.1463 65.4051Z" fill="white"/>
<path d="M53.916 65.9281C53.916 65.337 54.0304 64.7687 54.2823 64.2912C54.5341 63.7911 54.8775 63.4046 55.3125 63.1091C55.7475 62.8135 56.2512 62.6771 56.8235 62.6771C57.3043 62.6771 57.7393 62.7908 58.1285 63.0181C58.5177 63.2455 58.8153 63.541 59.0214 63.9048V60.1992H60.7155V67.2466C60.7155 67.4285 60.7384 67.5422 60.8071 67.6104C60.8758 67.6786 60.9674 67.724 61.1047 67.7468V69.0653C60.8071 69.1335 60.5553 69.1563 60.395 69.1335C60.0974 69.1335 59.8455 69.0653 59.6395 68.9289C59.4334 68.7925 59.3419 68.5879 59.2961 68.3606V67.9514C59.0213 68.3379 58.7008 68.6561 58.2887 68.8607C57.8766 69.0653 57.4417 69.179 56.9838 69.179C56.5259 69.179 56.1138 69.0881 55.7475 68.9289C55.3583 68.7698 55.0378 68.5425 54.763 68.2242C54.4883 67.9287 54.2594 67.5649 54.122 67.1784C53.9846 66.792 53.8931 66.36 53.8931 65.9053L53.916 65.9281ZM59.0442 66.7465V65.2688C58.9527 65.0415 58.8382 64.8369 58.655 64.655C58.4719 64.4731 58.2658 64.3367 58.0369 64.223C57.808 64.1094 57.579 64.0639 57.373 64.0639C57.1211 64.0639 56.8922 64.1094 56.6633 64.223C56.4572 64.3367 56.2741 64.4731 56.1138 64.6323C55.9535 64.7914 55.8391 65.0187 55.7704 65.2461C55.6788 65.4734 55.6559 65.7235 55.6559 65.9735C55.6559 66.2236 55.7017 66.4737 55.7933 66.701C55.8849 66.9284 55.9993 67.133 56.1596 67.2921C56.3198 67.4512 56.503 67.5876 56.7319 67.6786C56.9609 67.7695 57.1898 67.815 57.4645 67.815C57.6248 67.815 57.7851 67.7923 57.9453 67.7468C58.1056 67.7013 58.2658 67.6331 58.4032 67.5194C58.5406 67.4285 58.6779 67.3148 58.7924 67.1784C58.9069 67.042 58.9985 66.9056 59.0442 66.7465Z" fill="white"/>
<path d="M69.3689 69.1337C68.7279 69.1337 68.1326 69.02 67.6061 68.7699C67.0795 68.5199 66.6216 68.2016 66.2324 67.7696C65.8432 67.3604 65.5456 66.883 65.3396 66.3602C65.1335 65.8373 65.019 65.2917 65.019 64.746C65.019 64.2004 65.1335 63.6094 65.3396 63.0865C65.5685 62.5636 65.8661 62.1089 66.2553 61.677C66.6445 61.2678 67.1024 60.9495 67.629 60.6994C68.1555 60.4494 68.7508 60.3357 69.3689 60.3357C69.9871 60.3357 70.6052 60.4721 71.1318 60.7222C71.6583 60.9722 72.1162 61.3132 72.4825 61.7225C72.8488 62.1317 73.1465 62.6091 73.3525 63.132C73.5586 63.6548 73.6501 64.1777 73.6501 64.746C73.6501 65.3144 73.5357 65.86 73.3296 66.3829C73.1236 66.9058 72.8259 67.3604 72.4367 67.7924C72.0475 68.2016 71.5897 68.5199 71.0631 68.7472C70.5365 68.9745 69.9642 69.1109 69.3231 69.1109L69.3689 69.1337ZM66.8048 64.746C66.8048 65.1098 66.8735 65.4735 66.9879 65.8373C67.1024 66.201 67.2627 66.4966 67.4916 66.7694C67.7206 67.0422 67.9724 67.2468 68.3158 67.4059C68.6363 67.565 69.0026 67.6332 69.4147 67.6332C69.8268 67.6332 70.216 67.5423 70.5365 67.3832C70.857 67.224 71.1318 66.9967 71.3378 66.7239C71.5439 66.4511 71.727 66.1328 71.8415 65.7918C71.956 65.4508 72.0018 65.0871 72.0018 64.746C72.0018 64.3823 71.9331 64.0186 71.8186 63.6776C71.7041 63.3366 71.521 63.0183 71.3149 62.7455C71.086 62.4727 70.8113 62.2681 70.4907 62.1089C70.1702 61.9498 69.8039 61.8816 69.3918 61.8816C68.9797 61.8816 68.6134 61.9725 68.2929 62.1317C67.9724 62.2908 67.6977 62.5181 67.4687 62.7909C67.2398 63.0638 67.0795 63.382 66.965 63.723C66.8506 64.064 66.8048 64.4278 66.8048 64.7688V64.746Z" fill="white"/>
<path d="M77.2904 69.2016C76.7409 69.2016 76.1914 69.1107 75.6878 68.9288C75.1841 68.747 74.7262 68.4969 74.3828 68.1331L75.0009 67.0647C75.3901 67.3829 75.7565 67.6103 76.1457 67.7467C76.5349 67.8831 76.8783 67.974 77.2446 67.974C77.5651 67.974 77.8398 67.9285 78.023 67.8149C78.229 67.7012 78.3206 67.5421 78.3206 67.3147C78.3206 67.1556 78.2748 67.0419 78.1603 66.951C78.0459 66.8601 77.8856 66.7919 77.6796 66.7464C77.4735 66.6782 77.2217 66.61 76.9241 66.5418C76.4433 66.4054 76.0312 66.2462 75.7107 66.1098C75.3901 65.9507 75.1383 65.7688 74.9781 65.5642C74.8178 65.3596 74.7262 65.0641 74.7262 64.7231C74.7262 64.3139 74.8407 63.9501 75.0467 63.6546C75.2757 63.359 75.5733 63.1317 75.9854 62.9498C76.3746 62.7907 76.8554 62.6998 77.3819 62.6998C77.8398 62.6998 78.2977 62.768 78.7098 62.9044C79.1219 63.0408 79.5111 63.2681 79.8545 63.5864L79.1677 64.6321C78.8472 64.3821 78.5266 64.1775 78.229 64.0638C77.9314 63.9501 77.6338 63.8819 77.3133 63.8819C77.1301 63.8819 76.9698 63.8819 76.8096 63.9501C76.6493 64.0183 76.5349 64.0638 76.4433 64.1547C76.3517 64.2457 76.3059 64.3821 76.3059 64.5412C76.3059 64.6776 76.3517 64.7913 76.4433 64.8822C76.5349 64.9732 76.6722 65.0413 76.8325 65.1096C76.9927 65.1778 77.2217 65.246 77.4964 65.3142C78.023 65.4506 78.458 65.6097 78.8243 65.7461C79.1906 65.8825 79.4653 66.0871 79.6485 66.3144C79.8316 66.5418 79.9232 66.8373 79.9232 67.2238C79.9232 67.8376 79.6942 68.3378 79.2135 68.6788C78.7327 69.0198 78.0917 69.2016 77.2904 69.2016Z" fill="white"/>
<path d="M91.2557 69.0655H89.5844V65.5417C89.5844 65.0416 89.4928 64.6779 89.3097 64.4505C89.1265 64.2232 88.8747 64.1095 88.5542 64.1095C88.2108 64.1095 87.9132 64.2232 87.6155 64.4732C87.3179 64.7233 87.1119 65.0416 86.9974 65.4053V69.0655H85.3032V65.5417C85.3032 65.0416 85.2116 64.6779 85.0285 64.4505C84.8453 64.2232 84.6164 64.1095 84.2959 64.1095C83.9754 64.1095 83.6548 64.2232 83.3572 64.4732C83.0596 64.7233 82.8536 65.0189 82.7162 65.4053V69.0882H81.0449V62.7682H82.5559V63.9504C82.8078 63.5412 83.1512 63.2229 83.5633 62.9955C83.9754 62.7682 84.4561 62.6545 85.0056 62.6545C85.5551 62.6545 85.9672 62.7909 86.2877 63.041C86.5853 63.2911 86.7913 63.6094 86.86 63.9958C87.1348 63.5639 87.4782 63.2229 87.8903 62.9955C88.3024 62.7682 88.7831 62.6545 89.3097 62.6545C89.7218 62.6545 90.0423 62.7227 90.2941 62.8591C90.546 62.9955 90.752 63.1774 90.8894 63.4275C91.0268 63.6548 91.1183 63.9276 91.187 64.2232C91.2328 64.5187 91.2786 64.8143 91.2786 65.1098V69.0655H91.2557Z" fill="white"/>
<path d="M95.7432 69.2019C95.2166 69.2019 94.7359 69.1109 94.3009 68.9291C93.8888 68.7472 93.5225 68.5199 93.2249 68.2016C92.9272 67.9061 92.6983 67.5423 92.538 67.1558C92.3778 66.7694 92.3091 66.3602 92.3091 65.9282C92.3091 65.4963 92.3778 65.0643 92.538 64.6551C92.6983 64.2459 92.9272 63.9049 93.202 63.6094C93.4996 63.3138 93.8659 63.0638 94.278 62.9046C94.713 62.7227 95.1708 62.6545 95.6974 62.6545C96.224 62.6545 96.7277 62.7455 97.1397 62.9046C97.5518 63.0865 97.9181 63.3138 98.2158 63.6094C98.5134 63.9049 98.7423 64.2459 98.9026 64.6551C99.0629 65.0643 99.1315 65.4735 99.1315 65.9282C99.1315 66.3829 99.04 66.7694 98.9026 67.1558C98.7652 67.5423 98.5134 67.8833 98.2158 68.2016C97.9181 68.4971 97.5518 68.7472 97.1397 68.9291C96.7277 69.1109 96.2469 69.2019 95.6974 69.2019H95.7432ZM94.049 65.9282C94.049 66.292 94.1177 66.6102 94.278 66.9058C94.4382 67.2013 94.6443 67.4059 94.8961 67.565C95.148 67.7242 95.4456 67.7924 95.7661 67.7924C96.0866 67.7924 96.3613 67.7014 96.6361 67.5423C96.9108 67.3832 97.094 67.1558 97.2542 66.883C97.4145 66.6102 97.4832 66.2692 97.4832 65.9055C97.4832 65.5417 97.4145 65.2235 97.2542 64.9507C97.094 64.6779 96.8879 64.4505 96.6361 64.2914C96.3842 64.1322 96.0866 64.0413 95.7661 64.0413C95.4456 64.0413 95.1709 64.1322 94.8961 64.2914C94.6443 64.4505 94.4382 64.6779 94.278 64.9507C94.1177 65.2235 94.049 65.5645 94.049 65.9282Z" fill="white"/>
<path d="M100.299 60.1992H101.971V67.042C101.971 67.3376 102.016 67.5422 102.131 67.6558C102.222 67.7468 102.36 67.815 102.52 67.815C102.68 67.815 102.818 67.815 102.955 67.7695C103.092 67.7468 103.207 67.7013 103.321 67.6331L103.55 68.8835C103.321 68.9971 103.07 69.0653 102.772 69.1335C102.474 69.2017 102.2 69.2245 101.948 69.2245C101.421 69.2245 101.009 69.0881 100.734 68.8153C100.437 68.5425 100.299 68.156 100.299 67.6558V60.2219V60.1992Z" fill="white"/>
<path d="M103.825 67.2013C103.825 66.7921 103.94 66.4284 104.191 66.1328C104.42 65.8373 104.764 65.5872 105.176 65.4281C105.588 65.2462 106.092 65.178 106.641 65.178C106.916 65.178 107.191 65.178 107.488 65.2462C107.763 65.2917 108.015 65.3599 108.221 65.4281V65.0871C108.221 64.7006 108.106 64.405 107.855 64.1777C107.603 63.9504 107.259 63.8594 106.756 63.8594C106.389 63.8594 106.046 63.9276 105.725 64.0413C105.405 64.155 105.061 64.3368 104.695 64.5642L104.169 63.4957C104.604 63.2229 105.039 62.9955 105.496 62.8591C105.954 62.7227 106.435 62.6545 106.939 62.6545C107.877 62.6545 108.61 62.8819 109.114 63.3138C109.617 63.7458 109.892 64.405 109.892 65.2462V67.2468C109.892 67.4059 109.915 67.5423 109.984 67.6105C110.052 67.6787 110.144 67.7242 110.281 67.7469V69.0655C110.121 69.0882 110.007 69.1109 109.869 69.1337C109.755 69.1337 109.64 69.1337 109.572 69.1337C109.228 69.1337 108.976 69.0655 108.816 68.9291C108.656 68.7927 108.541 68.6108 108.518 68.4062L108.473 68.0879C108.175 68.4517 107.832 68.7245 107.397 68.9063C106.962 69.1109 106.527 69.2019 106.092 69.2019C105.657 69.2019 105.267 69.1109 104.924 68.9291C104.581 68.7472 104.306 68.5199 104.1 68.2243C103.894 67.9288 103.802 67.5878 103.802 67.224L103.825 67.2013ZM107.9 67.5196C107.9 67.5196 108.061 67.3377 108.129 67.2468C108.198 67.1558 108.221 67.0649 108.221 66.974V66.3374C108.015 66.2692 107.809 66.201 107.557 66.1556C107.328 66.1101 107.099 66.0873 106.893 66.0873C106.458 66.0873 106.092 66.1783 105.817 66.3602C105.542 66.542 105.405 66.7694 105.405 67.0649C105.405 67.224 105.451 67.3832 105.542 67.5196C105.634 67.656 105.771 67.7924 105.931 67.8606C106.115 67.9515 106.321 67.997 106.572 67.997C106.824 67.997 107.076 67.9515 107.305 67.8606C107.557 67.7697 107.74 67.656 107.9 67.4968V67.5196Z" fill="white"/>
<path d="M111.448 60.1992H113.12V67.042C113.12 67.3376 113.165 67.5422 113.28 67.6558C113.371 67.7468 113.509 67.815 113.669 67.815C113.829 67.815 113.967 67.815 114.104 67.7695C114.241 67.7468 114.356 67.7013 114.47 67.6331L114.699 68.8835C114.47 68.9971 114.218 69.0653 113.921 69.1335C113.623 69.2017 113.348 69.2245 113.097 69.2245C112.57 69.2245 112.158 69.0881 111.883 68.8153C111.586 68.5425 111.448 68.156 111.448 67.6558V60.2219V60.1992Z" fill="white"/>
<path d="M115.432 61.7905V60.1764H117.103V61.7905H115.432ZM115.432 69.0653V62.6998H117.103V69.0653H115.432Z" fill="white"/>
<path d="M122.552 68.747C122.392 68.8152 122.232 68.8834 122.026 68.9516C121.82 69.0198 121.614 69.088 121.385 69.1335C121.156 69.1789 120.927 69.2017 120.698 69.2017C120.377 69.2017 120.103 69.1562 119.828 69.0425C119.576 68.9289 119.37 68.7697 119.21 68.5424C119.05 68.315 118.981 68.0195 118.981 67.6558V64.0184H118.134V62.768H118.981V60.6992H120.675V62.768H122.049V64.0184H120.675V67.1102C120.675 67.3375 120.744 67.4966 120.858 67.5876C120.973 67.6785 121.133 67.7467 121.316 67.7467C121.476 67.7467 121.659 67.724 121.82 67.6558C121.98 67.5876 122.117 67.5421 122.232 67.4966L122.552 68.7925V68.747Z" fill="white"/>
<path d="M123.559 70.3156C123.72 70.3383 123.857 70.3838 123.972 70.3838C124.109 70.3838 124.201 70.4293 124.292 70.4293C124.452 70.4293 124.59 70.3838 124.681 70.3156C124.773 70.2474 124.887 70.111 124.979 69.9064C125.071 69.7018 125.185 69.429 125.299 69.088L122.712 62.7452H124.452L126.215 67.4284L127.772 62.7452H129.375L126.627 70.3383C126.536 70.6111 126.375 70.8839 126.169 71.1113C125.963 71.3386 125.712 71.5205 125.414 71.6569C125.116 71.7933 124.773 71.8615 124.384 71.8615C124.246 71.8615 124.109 71.8615 123.994 71.8388C123.88 71.816 123.72 71.7706 123.559 71.7251V70.3156Z" fill="white"/>
<path d="M87.4783 31.1452C85.0973 41.3527 75.7108 48.9458 64.4926 48.9458C54.3276 48.9458 45.6508 42.694 42.354 33.9187" stroke="white" stroke-width="2.45422" stroke-miterlimit="10"/>
<path d="M48.1692 37.397L42.6746 34.6235L39.8815 40.0796L38.7368 36.5786L41.5299 31.1452L47.0245 33.9187L48.1692 37.397Z" fill="white"/>
<path d="M41.5298 20.9378C43.9108 10.7303 53.2974 3.13721 64.5155 3.13721C74.6805 3.13721 83.3574 9.389 86.6541 18.1643" stroke="white" stroke-width="2.45422" stroke-miterlimit="10"/>
<path d="M80.8623 14.6634L86.334 17.4369L89.1271 12.0035L90.2718 15.4818L87.4787 20.9379L82.007 18.1644L80.8623 14.6634Z" fill="white"/>
<path d="M78.6417 28.7584C78.6417 31.3501 76.4667 33.4643 73.7881 33.4643C71.1095 33.4643 68.9346 31.3501 68.9346 28.7584C68.9346 25.2347 71.659 21.3472 73.7881 19.142C75.9402 21.3472 78.6417 25.2574 78.6417 28.7584Z" fill="white"/>
<path d="M50.7788 28.7584C50.7788 31.3501 52.9537 33.4643 55.6324 33.4643C58.311 33.4643 60.4859 31.3501 60.4859 28.7584C60.4859 25.2347 57.7615 21.3472 55.6324 19.142C53.4803 21.3472 50.7788 25.2574 50.7788 28.7584Z" fill="white"/>
<path d="M64.7215 36.465C60.5318 36.465 57.1206 33.1459 57.1206 29.0538C57.1206 24.1433 60.6921 18.6872 64.0346 15.2089L64.7215 14.4814L65.4083 15.1862C68.7508 18.6417 72.3223 24.0979 72.3223 29.0311C72.3223 33.1232 68.9111 36.4423 64.7215 36.4423V36.465Z" fill="white"/>
<path d="M64.7216 15.8456C67.6521 18.8919 71.3609 24.2343 71.3609 29.0312C71.3609 32.6004 68.3847 35.4876 64.7216 35.4876C61.0586 35.4876 58.0823 32.6004 58.0823 29.0312C58.0823 24.2116 61.8141 18.8691 64.7216 15.8456ZM64.7216 13.1175L63.348 14.5497C59.891 18.1644 56.1821 23.8706 56.1821 29.0539C56.1821 33.6689 60.0283 37.4199 64.7445 37.4199C69.4607 37.4199 73.3069 33.6689 73.3069 29.0539C73.3069 23.8251 69.5981 18.1189 66.1182 14.5497L64.7445 13.1175H64.7216Z" fill="white"/>
</g>
<defs>
<clipPath id="clip0_161_401">
<rect width="527" height="73.4075" fill="white"/>
</clipPath>
</defs>
</svg>
